<svg width="1440" height="57" viewBox="0 0 1440 57" fill="none" xmlns="http://www.w3.org/2000/svg">
<g clip-path="url(#clip0_2126_438)">
<g filter="url(#filter0_d_2126_438)">
<mask id="path-1-inside-1_2126_438" fill="white">
<path d="M0 0V28.5713C8.10693e-05 44.3507 12.7918 57.1425 28.5713 57.1426C44.3508 57.1426 57.1425 44.3508 57.1426 28.5713C57.1427 44.3507 69.9345 57.1424 85.7139 57.1426C101.493 57.1426 114.285 44.3508 114.285 28.5713C114.285 44.3508 127.078 57.1426 142.857 57.1426C158.637 57.1424 171.429 44.3507 171.429 28.5713C171.429 44.3507 184.221 57.1425 200 57.1426C215.78 57.1426 228.571 44.3508 228.571 28.5713C228.571 44.3507 241.363 57.1424 257.143 57.1426C272.922 57.1426 285.714 44.3508 285.714 28.5713C285.714 44.3508 298.507 57.1426 314.286 57.1426C330.065 57.1424 342.857 44.3507 342.857 28.5713C342.858 44.3508 355.649 57.1426 371.429 57.1426C387.208 57.1425 400 44.3507 400 28.5713C400 44.3507 412.792 57.1425 428.571 57.1426C444.351 57.1426 457.143 44.3508 457.143 28.5713C457.143 44.3506 469.935 57.1423 485.714 57.1426C501.493 57.1426 514.286 44.3508 514.286 28.5713C514.286 44.3508 527.078 57.1426 542.857 57.1426C558.637 57.1424 571.429 44.3507 571.429 28.5713C571.429 44.3508 584.22 57.1426 600 57.1426C615.78 57.1426 628.571 44.3508 628.571 28.5713C628.571 44.3507 641.363 57.1425 657.143 57.1426C672.922 57.1426 685.714 44.3508 685.714 28.5713C685.714 44.3508 698.507 57.1426 714.286 57.1426C730.065 57.1424 742.857 44.3507 742.857 28.5713C742.858 44.3508 755.649 57.1426 771.429 57.1426C787.208 57.1425 800 44.3507 800 28.5713C800 44.3507 812.792 57.1425 828.571 57.1426C844.351 57.1426 857.143 44.3508 857.143 28.5713C857.143 44.3506 869.935 57.1423 885.714 57.1426C901.493 57.1426 914.286 44.3508 914.286 28.5713C914.286 44.3508 927.078 57.1426 942.857 57.1426C958.637 57.1424 971.429 44.3507 971.429 28.5713C971.429 44.3508 984.22 57.1426 1000 57.1426C1015.78 57.1426 1028.57 44.3508 1028.57 28.5713C1028.57 44.3507 1041.36 57.1425 1057.14 57.1426C1072.92 57.1426 1085.71 44.3508 1085.71 28.5713C1085.71 44.3508 1098.51 57.1426 1114.29 57.1426C1130.07 57.1424 1142.86 44.3507 1142.86 28.5713C1142.86 44.3508 1155.65 57.1426 1171.43 57.1426C1187.21 57.1425 1200 44.3507 1200 28.5713C1200 44.3507 1212.79 57.1425 1228.57 57.1426C1244.35 57.1426 1257.14 44.3508 1257.14 28.5713C1257.14 44.3506 1269.93 57.1423 1285.71 57.1426C1301.49 57.1426 1314.29 44.3508 1314.29 28.5713C1314.29 44.3508 1327.08 57.1426 1342.86 57.1426C1358.64 57.1424 1371.43 44.3507 1371.43 28.5713C1371.43 44.3508 1384.22 57.1426 1400 57.1426C1415.78 57.1426 1428.57 44.3508 1428.57 28.5713C1428.57 44.3507 1441.36 57.1424 1457.14 57.1426C1472.92 57.1426 1485.71 44.3508 1485.71 28.5713C1485.71 44.3508 1498.51 57.1426 1514.29 57.1426C1530.07 57.1423 1542.86 44.3506 1542.86 28.5713C1542.86 44.3508 1555.65 57.1426 1571.43 57.1426C1586.96 57.1425 1599.6 44.7473 1599.99 29.3086L1600 28.5713C1600 44.3507 1612.79 57.1425 1628.57 57.1426C1644.35 57.1426 1657.14 44.3508 1657.14 28.5713C1657.14 44.3506 1669.93 57.1424 1685.71 57.1426C1701.49 57.1426 1714.29 44.3508 1714.29 28.5713C1714.29 44.3508 1727.08 57.1426 1742.86 57.1426C1758.64 57.1424 1771.43 44.3507 1771.43 28.5713C1771.43 44.3508 1784.22 57.1426 1800 57.1426C1815.78 57.1426 1828.57 44.3508 1828.57 28.5713C1828.57 44.3507 1841.36 57.1424 1857.14 57.1426C1872.92 57.1426 1885.71 44.3508 1885.71 28.5713C1885.71 44.3508 1898.51 57.1426 1914.29 57.1426C1930.07 57.1424 1942.86 44.3507 1942.86 28.5713C1942.86 44.3508 1955.65 57.1426 1971.43 57.1426C1987.21 57.1425 2000 44.3507 2000 28.5713C2000 44.3507 2012.79 57.1425 2028.57 57.1426C2044.35 57.1426 2057.14 44.3508 2057.14 28.5713C2057.14 44.3506 2069.93 57.1424 2085.71 57.1426C2101.49 57.1426 2114.29 44.3508 2114.29 28.5713C2114.29 44.3508 2127.08 57.1426 2142.86 57.1426C2158.64 57.1424 2171.43 44.3507 2171.43 28.5713C2171.43 44.3508 2184.22 57.1426 2200 57.1426C2215.78 57.1426 2228.57 44.3508 2228.57 28.5713C2228.57 44.3507 2241.36 57.1424 2257.14 57.1426C2272.92 57.1426 2285.71 44.3508 2285.71 28.5713C2285.71 44.3508 2298.51 57.1426 2314.29 57.1426C2330.07 57.1424 2342.86 44.3507 2342.86 28.5713C2342.86 44.3508 2355.65 57.1426 2371.43 57.1426C2387.21 57.1425 2400 44.3507 2400 28.5713V0H0Z"/>
</mask>
<path d="M0 0V28.5713C8.10693e-05 44.3507 12.7918 57.1425 28.5713 57.1426C44.3508 57.1426 57.1425 44.3508 57.1426 28.5713C57.1427 44.3507 69.9345 57.1424 85.7139 57.1426C101.493 57.1426 114.285 44.3508 114.285 28.5713C114.285 44.3508 127.078 57.1426 142.857 57.1426C158.637 57.1424 171.429 44.3507 171.429 28.5713C171.429 44.3507 184.221 57.1425 200 57.1426C215.78 57.1426 228.571 44.3508 228.571 28.5713C228.571 44.3507 241.363 57.1424 257.143 57.1426C272.922 57.1426 285.714 44.3508 285.714 28.5713C285.714 44.3508 298.507 57.1426 314.286 57.1426C330.065 57.1424 342.857 44.3507 342.857 28.5713C342.858 44.3508 355.649 57.1426 371.429 57.1426C387.208 57.1425 400 44.3507 400 28.5713C400 44.3507 412.792 57.1425 428.571 57.1426C444.351 57.1426 457.143 44.3508 457.143 28.5713C457.143 44.3506 469.935 57.1423 485.714 57.1426C501.493 57.1426 514.286 44.3508 514.286 28.5713C514.286 44.3508 527.078 57.1426 542.857 57.1426C558.637 57.1424 571.429 44.3507 571.429 28.5713C571.429 44.3508 584.22 57.1426 600 57.1426C615.78 57.1426 628.571 44.3508 628.571 28.5713C628.571 44.3507 641.363 57.1425 657.143 57.1426C672.922 57.1426 685.714 44.3508 685.714 28.5713C685.714 44.3508 698.507 57.1426 714.286 57.1426C730.065 57.1424 742.857 44.3507 742.857 28.5713C742.858 44.3508 755.649 57.1426 771.429 57.1426C787.208 57.1425 800 44.3507 800 28.5713C800 44.3507 812.792 57.1425 828.571 57.1426C844.351 57.1426 857.143 44.3508 857.143 28.5713C857.143 44.3506 869.935 57.1423 885.714 57.1426C901.493 57.1426 914.286 44.3508 914.286 28.5713C914.286 44.3508 927.078 57.1426 942.857 57.1426C958.637 57.1424 971.429 44.3507 971.429 28.5713C971.429 44.3508 984.22 57.1426 1000 57.1426C1015.78 57.1426 1028.57 44.3508 1028.57 28.5713C1028.57 44.3507 1041.36 57.1425 1057.14 57.1426C1072.92 57.1426 1085.71 44.3508 1085.71 28.5713C1085.71 44.3508 1098.51 57.1426 1114.29 57.1426C1130.07 57.1424 1142.86 44.3507 1142.86 28.5713C1142.86 44.3508 1155.65 57.1426 1171.43 57.1426C1187.21 57.1425 1200 44.3507 1200 28.5713C1200 44.3507 1212.79 57.1425 1228.57 57.1426C1244.35 57.1426 1257.14 44.3508 1257.14 28.5713C1257.14 44.3506 1269.93 57.1423 1285.71 57.1426C1301.49 57.1426 1314.29 44.3508 1314.29 28.5713C1314.29 44.3508 1327.08 57.1426 1342.86 57.1426C1358.64 57.1424 1371.43 44.3507 1371.43 28.5713C1371.43 44.3508 1384.22 57.1426 1400 57.1426C1415.78 57.1426 1428.57 44.3508 1428.57 28.5713C1428.57 44.3507 1441.36 57.1424 1457.14 57.1426C1472.92 57.1426 1485.71 44.3508 1485.71 28.5713C1485.71 44.3508 1498.51 57.1426 1514.29 57.1426C1530.07 57.1423 1542.86 44.3506 1542.86 28.5713C1542.86 44.3508 1555.65 57.1426 1571.43 57.1426C1586.96 57.1425 1599.6 44.7473 1599.99 29.3086L1600 28.5713C1600 44.3507 1612.79 57.1425 1628.57 57.1426C1644.35 57.1426 1657.14 44.3508 1657.14 28.5713C1657.14 44.3506 1669.93 57.1424 1685.71 57.1426C1701.49 57.1426 1714.29 44.3508 1714.29 28.5713C1714.29 44.3508 1727.08 57.1426 1742.86 57.1426C1758.64 57.1424 1771.43 44.3507 1771.43 28.5713C1771.43 44.3508 1784.22 57.1426 1800 57.1426C1815.78 57.1426 1828.57 44.3508 1828.57 28.5713C1828.57 44.3507 1841.36 57.1424 1857.14 57.1426C1872.92 57.1426 1885.71 44.3508 1885.71 28.5713C1885.71 44.3508 1898.51 57.1426 1914.29 57.1426C1930.07 57.1424 1942.86 44.3507 1942.86 28.5713C1942.86 44.3508 1955.65 57.1426 1971.43 57.1426C1987.21 57.1425 2000 44.3507 2000 28.5713C2000 44.3507 2012.79 57.1425 2028.57 57.1426C2044.35 57.1426 2057.14 44.3508 2057.14 28.5713C2057.14 44.3506 2069.93 57.1424 2085.71 57.1426C2101.49 57.1426 2114.29 44.3508 2114.29 28.5713C2114.29 44.3508 2127.08 57.1426 2142.86 57.1426C2158.64 57.1424 2171.43 44.3507 2171.43 28.5713C2171.43 44.3508 2184.22 57.1426 2200 57.1426C2215.78 57.1426 2228.57 44.3508 2228.57 28.5713C2228.57 44.3507 2241.36 57.1424 2257.14 57.1426C2272.92 57.1426 2285.71 44.3508 2285.71 28.5713C2285.71 44.3508 2298.51 57.1426 2314.29 57.1426C2330.07 57.1424 2342.86 44.3507 2342.86 28.5713C2342.86 44.3508 2355.65 57.1426 2371.43 57.1426C2387.21 57.1425 2400 44.3507 2400 28.5713V0H0Z" fill="#623508"/>
<path d="M0 0H-3V-3H0V0ZM0 28.5713L-3 28.5713V28.5713H0ZM28.5713 57.1426L28.5713 60.1426L28.5713 60.1426L28.5713 57.1426ZM57.1426 28.5713L54.1426 28.5713L60.1426 28.5713L57.1426 28.5713ZM85.7139 57.1426L85.7139 60.1426L85.7138 60.1426L85.7139 57.1426ZM114.285 28.5713L111.285 28.5713L117.285 28.5713L114.285 28.5713ZM142.857 57.1426L142.857 60.1426H142.857V57.1426ZM171.429 28.5713L168.429 28.5713L174.429 28.5713L171.429 28.5713ZM200 57.1426L200 60.1426L200 60.1426L200 57.1426ZM228.571 28.5713L225.571 28.5713L231.571 28.5713L228.571 28.5713ZM257.143 57.1426L257.143 60.1426L257.143 60.1426L257.143 57.1426ZM285.714 28.5713L282.714 28.5713L288.714 28.5713L285.714 28.5713ZM314.286 57.1426L314.286 60.1426H314.286V57.1426ZM342.857 28.5713L339.857 28.5713L345.857 28.5713L342.857 28.5713ZM371.429 57.1426L371.429 60.1426H371.429V57.1426ZM400 28.5713L397 28.5713L403 28.5713L400 28.5713ZM428.571 57.1426L428.571 60.1426L428.571 60.1426L428.571 57.1426ZM457.143 28.5713L454.143 28.5713L460.143 28.5713L457.143 28.5713ZM485.714 57.1426L485.714 60.1426L485.714 60.1426L485.714 57.1426ZM514.286 28.5713L511.286 28.5713L517.286 28.5713L514.286 28.5713ZM542.857 57.1426L542.857 60.1426H542.857V57.1426ZM571.429 28.5713L568.429 28.5713L574.429 28.5713L571.429 28.5713ZM600 57.1426L600 60.1426H600V57.1426ZM628.571 28.5713L625.571 28.5713L631.571 28.5713L628.571 28.5713ZM657.143 57.1426L657.143 60.1426L657.143 60.1426L657.143 57.1426ZM685.714 28.5713L682.714 28.5713L688.714 28.5713L685.714 28.5713ZM714.286 57.1426L714.286 60.1426H714.286V57.1426ZM742.857 28.5713L739.857 28.5713L745.857 28.5713L742.857 28.5713ZM771.429 57.1426L771.429 60.1426H771.429V57.1426ZM800 28.5713L797 28.5713L803 28.5713L800 28.5713ZM828.571 57.1426L828.571 60.1426L828.571 60.1426L828.571 57.1426ZM857.143 28.5713L854.143 28.5713L860.143 28.5713L857.143 28.5713ZM885.714 57.1426L885.714 60.1426L885.714 60.1426L885.714 57.1426ZM914.286 28.5713L911.286 28.5713L917.286 28.5713L914.286 28.5713ZM942.857 57.1426L942.857 60.1426H942.857V57.1426ZM971.429 28.5713L968.429 28.5713L974.429 28.5713L971.429 28.5713ZM1000 57.1426L1000 60.1426H1000V57.1426ZM1028.57 28.5713L1025.57 28.5713L1031.57 28.5713L1028.57 28.5713ZM1057.14 57.1426L1057.14 60.1426L1057.14 60.1426L1057.14 57.1426ZM1085.71 28.5713L1082.71 28.5713L1088.71 28.5713L1085.71 28.5713ZM1114.29 57.1426L1114.29 60.1426H1114.29V57.1426ZM1142.86 28.5713L1139.86 28.5713L1145.86 28.5713L1142.86 28.5713ZM1171.43 57.1426L1171.43 60.1426H1171.43V57.1426ZM1200 28.5713L1197 28.5713L1203 28.5713L1200 28.5713ZM1228.57 57.1426L1228.57 60.1426L1228.57 60.1426L1228.57 57.1426ZM1257.14 28.5713L1254.14 28.5713L1260.14 28.5713L1257.14 28.5713ZM1285.71 57.1426L1285.71 60.1426L1285.71 60.1426L1285.71 57.1426ZM1314.29 28.5713L1311.29 28.5713L1317.29 28.5713L1314.29 28.5713ZM1342.86 57.1426L1342.86 60.1426H1342.86V57.1426ZM1371.43 28.5713L1368.43 28.5713L1374.43 28.5713L1371.43 28.5713ZM1400 57.1426L1400 60.1426H1400V57.1426ZM1428.57 28.5713L1425.57 28.5713L1431.57 28.5713L1428.57 28.5713ZM1457.14 57.1426L1457.14 60.1426L1457.14 60.1426L1457.14 57.1426ZM1485.71 28.5713L1482.71 28.5713L1488.71 28.5713L1485.71 28.5713ZM1514.29 57.1426L1514.29 60.1426H1514.29V57.1426ZM1542.86 28.5713L1539.86 28.5713L1545.86 28.5713L1542.86 28.5713ZM1571.43 57.1426L1571.43 60.1426H1571.43V57.1426ZM1599.99 29.3086L1602.99 29.3483L1602.99 29.3665L1602.99 29.3846L1599.99 29.3086ZM1600 28.5713L1597 28.5316L1603 28.5713L1600 28.5713ZM1628.57 57.1426L1628.57 60.1426L1628.57 60.1426L1628.57 57.1426ZM1657.14 28.5713L1654.14 28.5713L1660.14 28.5713L1657.14 28.5713ZM1685.71 57.1426L1685.71 60.1426L1685.71 60.1426L1685.71 57.1426ZM1714.29 28.5713L1711.29 28.5713L1717.29 28.5713L1714.29 28.5713ZM1742.86 57.1426L1742.86 60.1426H1742.86V57.1426ZM1771.43 28.5713L1768.43 28.5713L1774.43 28.5713L1771.43 28.5713ZM1800 57.1426L1800 60.1426H1800V57.1426ZM1828.57 28.5713L1825.57 28.5713L1831.57 28.5713L1828.57 28.5713ZM1857.14 57.1426L1857.14 60.1426L1857.14 60.1426L1857.14 57.1426ZM1885.71 28.5713L1882.71 28.5713L1888.71 28.5713L1885.71 28.5713ZM1914.29 57.1426L1914.29 60.1426H1914.29V57.1426ZM1942.86 28.5713L1939.86 28.5713L1945.86 28.5713L1942.86 28.5713ZM1971.43 57.1426L1971.43 60.1426H1971.43V57.1426ZM2000 28.5713L1997 28.5713L2003 28.5713L2000 28.5713ZM2028.57 57.1426L2028.57 60.1426L2028.57 60.1426L2028.57 57.1426ZM2057.14 28.5713L2054.14 28.5713L2060.14 28.5713L2057.14 28.5713ZM2085.71 57.1426L2085.71 60.1426L2085.71 60.1426L2085.71 57.1426ZM2114.29 28.5713L2111.29 28.5713L2117.29 28.5713L2114.29 28.5713ZM2142.86 57.1426L2142.86 60.1426H2142.86V57.1426ZM2171.43 28.5713L2168.43 28.5713L2174.43 28.5713L2171.43 28.5713ZM2200 57.1426L2200 60.1426H2200V57.1426ZM2228.57 28.5713L2225.57 28.5713L2231.57 28.5713L2228.57 28.5713ZM2257.14 57.1426L2257.14 60.1426L2257.14 60.1426L2257.14 57.1426ZM2285.71 28.5713L2282.71 28.5713L2288.71 28.5713L2285.71 28.5713ZM2314.29 57.1426L2314.29 60.1426H2314.29V57.1426ZM2342.86 28.5713L2339.86 28.5713L2345.86 28.5713L2342.86 28.5713ZM2371.43 57.1426L2371.43 60.1426H2371.43V57.1426ZM2400 28.5713L2403 28.5713L2403 28.5713L2400 28.5713ZM2400 0V-3H2403V0H2400ZM0 0H3V28.5713H0H-3V0H0ZM0 28.5713L3 28.5713C3.00007 42.6939 14.4487 54.1425 28.5713 54.1426L28.5713 57.1426L28.5713 60.1426C11.135 60.1425 -2.99991 46.0076 -3 28.5713L0 28.5713ZM28.5713 57.1426V54.1426C42.6939 54.1426 54.1425 42.6939 54.1426 28.5713L57.1426 28.5713L60.1426 28.5713C60.1425 46.0076 46.0077 60.1426 28.5713 60.1426V57.1426ZM57.1426 28.5713L60.1426 28.5713C60.1427 42.6938 71.5914 54.1424 85.7139 54.1426L85.7139 57.1426L85.7138 60.1426C68.2777 60.1424 54.1427 46.0075 54.1426 28.5713L57.1426 28.5713ZM85.7139 57.1426V54.1426C99.8365 54.1426 111.285 42.6939 111.285 28.5713L114.285 28.5713L117.285 28.5713C117.285 46.0076 103.15 60.1426 85.7139 60.1426V57.1426ZM114.285 28.5713L117.285 28.5713C117.285 42.6938 128.735 54.1426 142.857 54.1426V57.1426V60.1426C125.421 60.1426 111.285 46.0078 111.285 28.5713L114.285 28.5713ZM142.857 57.1426L142.857 54.1426C156.98 54.1424 168.429 42.6938 168.429 28.5713L171.429 28.5713L174.429 28.5713C174.429 46.0075 160.294 60.1423 142.857 60.1426L142.857 57.1426ZM171.429 28.5713L174.429 28.5713C174.429 42.6939 185.877 54.1425 200 54.1426L200 57.1426L200 60.1426C182.564 60.1425 168.429 46.0076 168.429 28.5713L171.429 28.5713ZM200 57.1426V54.1426C214.123 54.1426 225.571 42.6939 225.571 28.5713L228.571 28.5713L231.571 28.5713C231.571 46.0076 217.436 60.1426 200 60.1426V57.1426ZM228.571 28.5713L231.571 28.5713C231.571 42.6938 243.02 54.1424 257.143 54.1426L257.143 57.1426L257.143 60.1426C239.706 60.1424 225.571 46.0075 225.571 28.5713L228.571 28.5713ZM257.143 57.1426V54.1426C271.265 54.1426 282.714 42.6939 282.714 28.5713L285.714 28.5713L288.714 28.5713C288.714 46.0076 274.579 60.1426 257.143 60.1426V57.1426ZM285.714 28.5713L288.714 28.5713C288.714 42.6938 300.163 54.1426 314.286 54.1426V57.1426V60.1426C296.85 60.1426 282.714 46.0078 282.714 28.5713L285.714 28.5713ZM314.286 57.1426L314.286 54.1426C328.409 54.1424 339.857 42.6938 339.857 28.5713L342.857 28.5713L345.857 28.5713C345.857 46.0075 331.722 60.1423 314.286 60.1426L314.286 57.1426ZM342.857 28.5713L345.857 28.5713C345.857 42.6939 357.306 54.1426 371.429 54.1426V57.1426V60.1426C353.992 60.1426 339.858 46.0076 339.857 28.5713L342.857 28.5713ZM371.429 57.1426L371.429 54.1426C385.551 54.1425 397 42.6939 397 28.5713L400 28.5713L403 28.5713C403 46.0076 388.865 60.1425 371.429 60.1426L371.429 57.1426ZM400 28.5713L403 28.5713C403 42.6939 414.449 54.1425 428.571 54.1426L428.571 57.1426L428.571 60.1426C411.135 60.1425 397 46.0076 397 28.5713L400 28.5713ZM428.571 57.1426V54.1426C442.694 54.1426 454.143 42.6939 454.143 28.5713L457.143 28.5713L460.143 28.5713C460.143 46.0076 446.008 60.1426 428.571 60.1426V57.1426ZM457.143 28.5713L460.143 28.5713C460.143 42.6937 471.591 54.1424 485.714 54.1426L485.714 57.1426L485.714 60.1426C468.278 60.1423 454.143 46.0075 454.143 28.5713L457.143 28.5713ZM485.714 57.1426V54.1426C499.837 54.1426 511.286 42.6938 511.286 28.5713L514.286 28.5713L517.286 28.5713C517.286 46.0078 503.15 60.1426 485.714 60.1426V57.1426ZM514.286 28.5713L517.286 28.5713C517.286 42.6939 528.735 54.1426 542.857 54.1426V57.1426V60.1426C525.421 60.1426 511.286 46.0076 511.286 28.5713L514.286 28.5713ZM542.857 57.1426L542.857 54.1426C556.98 54.1425 568.429 42.6938 568.429 28.5713L571.429 28.5713L574.429 28.5713C574.429 46.0076 560.294 60.1424 542.857 60.1426L542.857 57.1426ZM571.429 28.5713L574.429 28.5713C574.429 42.6939 585.877 54.1426 600 54.1426V57.1426V60.1426C582.564 60.1426 568.429 46.0076 568.429 28.5713L571.429 28.5713ZM600 57.1426L600 54.1426C614.123 54.1426 625.571 42.6939 625.571 28.5713L628.571 28.5713L631.571 28.5713C631.571 46.0076 617.436 60.1426 600 60.1426L600 57.1426ZM628.571 28.5713L631.571 28.5713C631.571 42.6938 643.02 54.1425 657.143 54.1426L657.143 57.1426L657.143 60.1426C639.706 60.1424 625.571 46.0076 625.571 28.5713L628.571 28.5713ZM657.143 57.1426V54.1426C671.265 54.1426 682.714 42.6939 682.714 28.5713L685.714 28.5713L688.714 28.5713C688.714 46.0076 674.579 60.1426 657.143 60.1426V57.1426ZM685.714 28.5713L688.714 28.5713C688.714 42.6938 700.163 54.1426 714.286 54.1426V57.1426V60.1426C696.85 60.1426 682.714 46.0078 682.714 28.5713L685.714 28.5713ZM714.286 57.1426L714.286 54.1426C728.409 54.1424 739.857 42.6938 739.857 28.5713L742.857 28.5713L745.857 28.5713C745.857 46.0075 731.722 60.1423 714.286 60.1426L714.286 57.1426ZM742.857 28.5713L745.857 28.5713C745.857 42.6939 757.306 54.1426 771.429 54.1426V57.1426V60.1426C753.992 60.1426 739.858 46.0076 739.857 28.5713L742.857 28.5713ZM771.429 57.1426L771.429 54.1426C785.551 54.1425 797 42.6939 797 28.5713L800 28.5713L803 28.5713C803 46.0076 788.865 60.1425 771.429 60.1426L771.429 57.1426ZM800 28.5713L803 28.5713C803 42.6939 814.449 54.1425 828.571 54.1426L828.571 57.1426L828.571 60.1426C811.135 60.1425 797 46.0076 797 28.5713L800 28.5713ZM828.571 57.1426V54.1426C842.694 54.1426 854.143 42.6939 854.143 28.5713L857.143 28.5713L860.143 28.5713C860.143 46.0076 846.008 60.1426 828.571 60.1426V57.1426ZM857.143 28.5713L860.143 28.5713C860.143 42.6937 871.591 54.1424 885.714 54.1426L885.714 57.1426L885.714 60.1426C868.278 60.1423 854.143 46.0075 854.143 28.5713L857.143 28.5713ZM885.714 57.1426V54.1426C899.837 54.1426 911.286 42.6938 911.286 28.5713L914.286 28.5713L917.286 28.5713C917.286 46.0078 903.15 60.1426 885.714 60.1426V57.1426ZM914.286 28.5713L917.286 28.5713C917.286 42.6939 928.735 54.1426 942.857 54.1426V57.1426V60.1426C925.421 60.1426 911.286 46.0076 911.286 28.5713L914.286 28.5713ZM942.857 57.1426L942.857 54.1426C956.98 54.1425 968.429 42.6938 968.429 28.5713L971.429 28.5713L974.429 28.5713C974.429 46.0076 960.294 60.1424 942.857 60.1426L942.857 57.1426ZM971.429 28.5713L974.429 28.5713C974.429 42.6939 985.877 54.1426 1000 54.1426V57.1426V60.1426C982.564 60.1426 968.429 46.0076 968.429 28.5713L971.429 28.5713ZM1000 57.1426L1000 54.1426C1014.12 54.1426 1025.57 42.6939 1025.57 28.5713L1028.57 28.5713L1031.57 28.5713C1031.57 46.0076 1017.44 60.1426 1000 60.1426L1000 57.1426ZM1028.57 28.5713L1031.57 28.5713C1031.57 42.6938 1043.02 54.1425 1057.14 54.1426L1057.14 57.1426L1057.14 60.1426C1039.71 60.1424 1025.57 46.0076 1025.57 28.5713L1028.57 28.5713ZM1057.14 57.1426V54.1426C1071.27 54.1426 1082.71 42.6939 1082.71 28.5713L1085.71 28.5713L1088.71 28.5713C1088.71 46.0076 1074.58 60.1426 1057.14 60.1426V57.1426ZM1085.71 28.5713L1088.71 28.5713C1088.71 42.6938 1100.16 54.1426 1114.29 54.1426V57.1426V60.1426C1096.85 60.1426 1082.71 46.0078 1082.71 28.5713L1085.71 28.5713ZM1114.29 57.1426L1114.29 54.1426C1128.41 54.1424 1139.86 42.6938 1139.86 28.5713L1142.86 28.5713L1145.86 28.5713C1145.86 46.0075 1131.72 60.1423 1114.29 60.1426L1114.29 57.1426ZM1142.86 28.5713L1145.86 28.5713C1145.86 42.6939 1157.31 54.1426 1171.43 54.1426V57.1426V60.1426C1153.99 60.1426 1139.86 46.0076 1139.86 28.5713L1142.86 28.5713ZM1171.43 57.1426L1171.43 54.1426C1185.55 54.1425 1197 42.6939 1197 28.5713L1200 28.5713L1203 28.5713C1203 46.0076 1188.87 60.1425 1171.43 60.1426L1171.43 57.1426ZM1200 28.5713L1203 28.5713C1203 42.6939 1214.45 54.1425 1228.57 54.1426L1228.57 57.1426L1228.57 60.1426C1211.13 60.1425 1197 46.0076 1197 28.5713L1200 28.5713ZM1228.57 57.1426V54.1426C1242.69 54.1426 1254.14 42.6939 1254.14 28.5713L1257.14 28.5713L1260.14 28.5713C1260.14 46.0076 1246.01 60.1426 1228.57 60.1426V57.1426ZM1257.14 28.5713L1260.14 28.5713C1260.14 42.6937 1271.59 54.1424 1285.71 54.1426L1285.71 57.1426L1285.71 60.1426C1268.28 60.1423 1254.14 46.0075 1254.14 28.5713L1257.14 28.5713ZM1285.71 57.1426V54.1426C1299.84 54.1426 1311.29 42.6938 1311.29 28.5713L1314.29 28.5713L1317.29 28.5713C1317.29 46.0078 1303.15 60.1426 1285.71 60.1426V57.1426ZM1314.29 28.5713L1317.29 28.5713C1317.29 42.6939 1328.73 54.1426 1342.86 54.1426V57.1426V60.1426C1325.42 60.1426 1311.29 46.0076 1311.29 28.5713L1314.29 28.5713ZM1342.86 57.1426L1342.86 54.1426C1356.98 54.1425 1368.43 42.6938 1368.43 28.5713L1371.43 28.5713L1374.43 28.5713C1374.43 46.0076 1360.29 60.1424 1342.86 60.1426L1342.86 57.1426ZM1371.43 28.5713L1374.43 28.5713C1374.43 42.6939 1385.88 54.1426 1400 54.1426V57.1426V60.1426C1382.56 60.1426 1368.43 46.0076 1368.43 28.5713L1371.43 28.5713ZM1400 57.1426L1400 54.1426C1414.12 54.1426 1425.57 42.6939 1425.57 28.5713L1428.57 28.5713L1431.57 28.5713C1431.57 46.0076 1417.44 60.1426 1400 60.1426L1400 57.1426ZM1428.57 28.5713L1431.57 28.5713C1431.57 42.6938 1443.02 54.1424 1457.14 54.1426L1457.14 57.1426L1457.14 60.1426C1439.71 60.1424 1425.57 46.0076 1425.57 28.5713L1428.57 28.5713ZM1457.14 57.1426V54.1426C1471.27 54.1426 1482.71 42.6939 1482.71 28.5713L1485.71 28.5713L1488.71 28.5713C1488.71 46.0076 1474.58 60.1426 1457.14 60.1426V57.1426ZM1485.71 28.5713L1488.71 28.5713C1488.71 42.6938 1500.16 54.1426 1514.29 54.1426V57.1426V60.1426C1496.85 60.1426 1482.71 46.0078 1482.71 28.5713L1485.71 28.5713ZM1514.29 57.1426L1514.29 54.1426C1528.41 54.1424 1539.86 42.6938 1539.86 28.5713L1542.86 28.5713L1545.86 28.5713C1545.86 46.0075 1531.72 60.1423 1514.29 60.1426L1514.29 57.1426ZM1542.86 28.5713L1545.86 28.5713C1545.86 42.6939 1557.31 54.1426 1571.43 54.1426V57.1426V60.1426C1553.99 60.1426 1539.86 46.0076 1539.86 28.5713L1542.86 28.5713ZM1571.43 57.1426L1571.43 54.1426C1585.33 54.1425 1596.64 43.0488 1596.99 29.2326L1599.99 29.3086L1602.99 29.3846C1602.56 46.4458 1588.59 60.1425 1571.43 60.1426L1571.43 57.1426ZM1599.99 29.3086L1596.99 29.2689L1597 28.5316L1600 28.5713L1603 28.611L1602.99 29.3483L1599.99 29.3086ZM1600 28.5713L1603 28.5713C1603 42.6939 1614.45 54.1425 1628.57 54.1426L1628.57 57.1426L1628.57 60.1426C1611.13 60.1425 1597 46.0076 1597 28.5713L1600 28.5713ZM1628.57 57.1426V54.1426C1642.69 54.1426 1654.14 42.6939 1654.14 28.5713L1657.14 28.5713L1660.14 28.5713C1660.14 46.0076 1646.01 60.1426 1628.57 60.1426V57.1426ZM1657.14 28.5713L1660.14 28.5713C1660.14 42.6938 1671.59 54.1424 1685.71 54.1426L1685.71 57.1426L1685.71 60.1426C1668.28 60.1423 1654.14 46.0075 1654.14 28.5713L1657.14 28.5713ZM1685.71 57.1426V54.1426C1699.84 54.1426 1711.29 42.6938 1711.29 28.5713L1714.29 28.5713L1717.29 28.5713C1717.29 46.0078 1703.15 60.1426 1685.71 60.1426V57.1426ZM1714.29 28.5713L1717.29 28.5713C1717.29 42.6939 1728.73 54.1426 1742.86 54.1426V57.1426V60.1426C1725.42 60.1426 1711.29 46.0076 1711.29 28.5713L1714.29 28.5713ZM1742.86 57.1426L1742.86 54.1426C1756.98 54.1425 1768.43 42.6938 1768.43 28.5713L1771.43 28.5713L1774.43 28.5713C1774.43 46.0076 1760.29 60.1424 1742.86 60.1426L1742.86 57.1426ZM1771.43 28.5713L1774.43 28.5713C1774.43 42.6939 1785.88 54.1426 1800 54.1426V57.1426V60.1426C1782.56 60.1426 1768.43 46.0076 1768.43 28.5713L1771.43 28.5713ZM1800 57.1426L1800 54.1426C1814.12 54.1426 1825.57 42.6939 1825.57 28.5713L1828.57 28.5713L1831.57 28.5713C1831.57 46.0076 1817.44 60.1426 1800 60.1426L1800 57.1426ZM1828.57 28.5713L1831.57 28.5713C1831.57 42.6938 1843.02 54.1424 1857.14 54.1426L1857.14 57.1426L1857.14 60.1426C1839.71 60.1424 1825.57 46.0076 1825.57 28.5713L1828.57 28.5713ZM1857.14 57.1426V54.1426C1871.27 54.1426 1882.71 42.6939 1882.71 28.5713L1885.71 28.5713L1888.71 28.5713C1888.71 46.0076 1874.58 60.1426 1857.14 60.1426V57.1426ZM1885.71 28.5713L1888.71 28.5713C1888.71 42.6938 1900.16 54.1426 1914.29 54.1426V57.1426V60.1426C1896.85 60.1426 1882.71 46.0078 1882.71 28.5713L1885.71 28.5713ZM1914.29 57.1426L1914.29 54.1426C1928.41 54.1424 1939.86 42.6938 1939.86 28.5713L1942.86 28.5713L1945.86 28.5713C1945.86 46.0075 1931.72 60.1423 1914.29 60.1426L1914.29 57.1426ZM1942.86 28.5713L1945.86 28.5713C1945.86 42.6939 1957.31 54.1426 1971.43 54.1426V57.1426V60.1426C1953.99 60.1426 1939.86 46.0076 1939.86 28.5713L1942.86 28.5713ZM1971.43 57.1426L1971.43 54.1426C1985.55 54.1425 1997 42.6939 1997 28.5713L2000 28.5713L2003 28.5713C2003 46.0076 1988.87 60.1425 1971.43 60.1426L1971.43 57.1426ZM2000 28.5713L2003 28.5713C2003 42.6939 2014.45 54.1425 2028.57 54.1426L2028.57 57.1426L2028.57 60.1426C2011.13 60.1425 1997 46.0076 1997 28.5713L2000 28.5713ZM2028.57 57.1426V54.1426C2042.69 54.1426 2054.14 42.6939 2054.14 28.5713L2057.14 28.5713L2060.14 28.5713C2060.14 46.0076 2046.01 60.1426 2028.57 60.1426V57.1426ZM2057.14 28.5713L2060.14 28.5713C2060.14 42.6938 2071.59 54.1424 2085.71 54.1426L2085.71 57.1426L2085.71 60.1426C2068.28 60.1423 2054.14 46.0075 2054.14 28.5713L2057.14 28.5713ZM2085.71 57.1426V54.1426C2099.84 54.1426 2111.29 42.6938 2111.29 28.5713L2114.29 28.5713L2117.29 28.5713C2117.29 46.0078 2103.15 60.1426 2085.71 60.1426V57.1426ZM2114.29 28.5713L2117.29 28.5713C2117.29 42.6939 2128.73 54.1426 2142.86 54.1426V57.1426V60.1426C2125.42 60.1426 2111.29 46.0076 2111.29 28.5713L2114.29 28.5713ZM2142.86 57.1426L2142.86 54.1426C2156.98 54.1424 2168.43 42.6938 2168.43 28.5713L2171.43 28.5713L2174.43 28.5713C2174.43 46.0076 2160.29 60.1424 2142.86 60.1426L2142.86 57.1426ZM2171.43 28.5713L2174.43 28.5713C2174.43 42.6939 2185.88 54.1426 2200 54.1426V57.1426V60.1426C2182.56 60.1426 2168.43 46.0076 2168.43 28.5713L2171.43 28.5713ZM2200 57.1426L2200 54.1426C2214.12 54.1426 2225.57 42.6939 2225.57 28.5713L2228.57 28.5713L2231.57 28.5713C2231.57 46.0076 2217.44 60.1426 2200 60.1426L2200 57.1426ZM2228.57 28.5713L2231.57 28.5713C2231.57 42.6938 2243.02 54.1424 2257.14 54.1426L2257.14 57.1426L2257.14 60.1426C2239.71 60.1424 2225.57 46.0076 2225.57 28.5713L2228.57 28.5713ZM2257.14 57.1426V54.1426C2271.27 54.1426 2282.71 42.6939 2282.71 28.5713L2285.71 28.5713L2288.71 28.5713C2288.71 46.0076 2274.58 60.1426 2257.14 60.1426V57.1426ZM2285.71 28.5713L2288.71 28.5713C2288.71 42.6938 2300.16 54.1426 2314.29 54.1426V57.1426V60.1426C2296.85 60.1426 2282.71 46.0078 2282.71 28.5713L2285.71 28.5713ZM2314.29 57.1426L2314.29 54.1426C2328.41 54.1424 2339.86 42.6938 2339.86 28.5713L2342.86 28.5713L2345.86 28.5713C2345.86 46.0075 2331.72 60.1423 2314.29 60.1426L2314.29 57.1426ZM2342.86 28.5713L2345.86 28.5713C2345.86 42.6939 2357.31 54.1426 2371.43 54.1426V57.1426V60.1426C2353.99 60.1426 2339.86 46.0076 2339.86 28.5713L2342.86 28.5713ZM2371.43 57.1426L2371.43 54.1426C2385.55 54.1425 2397 42.6939 2397 28.5713L2400 28.5713L2403 28.5713C2403 46.0076 2388.87 60.1425 2371.43 60.1426L2371.43 57.1426ZM2400 28.5713H2397V0H2400H2403V28.5713H2400ZM2400 0V3H0V0V-3H2400V0Z" fill="#FFFEBC" mask="url(#path-1-inside-1_2126_438)"/>
</g>
</g>
<defs>
<filter id="filter0_d_2126_438" x="-4" y="-3" width="2408" height="65.1426" filterUnits="userSpaceOnUse" color-interpolation-filters="sRGB">
<feFlood flood-opacity="0" result="BackgroundImageFix"/>
<feColorMatrix in="SourceAlpha" type="matrix" values="0 0 0 0 0 0 0 0 0 0 0 0 0 0 0 0 0 0 127 0" result="hardAlpha"/>
<feOffset dy="1"/>
<feGaussianBlur stdDeviation="2"/>
<feComposite in2="hardAlpha" operator="out"/>
<feColorMatrix type="matrix" values="0 0 0 0 0 0 0 0 0 0 0 0 0 0 0 0 0 0 0.25 0"/>
<feBlend mode="normal" in2="BackgroundImageFix" result="effect1_dropShadow_2126_438"/>
<feBlend mode="normal" in="SourceGraphic" in2="effect1_dropShadow_2126_438" result="shape"/>
</filter>
<clipPath id="clip0_2126_438">
<rect width="1440" height="57" fill="white"/>
</clipPath>
</defs>
</svg>
