<svg width="1440" height="80" viewBox="0 0 1440 80" fill="none" xmlns="http://www.w3.org/2000/svg">
<g filter="url(#filter0_d_2126_490)">
<mask id="path-1-inside-1_2126_490" fill="white">
<path d="M-960 0V40C-960 62.0914 -942.091 80 -920 80C-897.909 80 -880 62.0914 -880 40C-880 62.0914 -862.091 80 -840 80C-817.909 80 -800 62.0914 -800 40C-800 62.0914 -782.091 80 -760 80C-737.909 80 -720 62.0914 -720 40C-720 62.0914 -702.091 80 -680 80C-657.909 80 -640 62.0914 -640 40C-640 62.0914 -622.091 80 -600 80C-577.909 80 -560 62.0914 -560 40C-560 62.0914 -542.091 80 -520 80C-497.909 80 -480 62.0914 -480 40C-480 62.0914 -462.091 80 -440 80C-417.909 80 -400 62.0914 -400 40C-400 62.0914 -382.091 80 -360 80C-337.909 80 -320 62.0914 -320 40C-320 62.0914 -302.091 80 -280 80C-257.909 80 -240 62.0914 -240 40C-240 62.0914 -222.091 80 -200 80C-177.909 80 -160 62.0914 -160 40C-160 62.0914 -142.091 80 -120 80C-97.9086 80 -80 62.0914 -80 40C-80 62.0914 -62.0914 80 -40 80C-17.9086 80 0 62.0914 0 40C0 62.0914 17.9086 80 40 80C62.0914 80 80 62.0914 80 40C80 62.0914 97.9086 80 120 80C142.091 80 160 62.0914 160 40C160 62.0914 177.909 80 200 80C222.091 80 240 62.0914 240 40C240 62.0914 257.909 80 280 80C302.091 80 320 62.0914 320 40C320 62.0914 337.909 80 360 80C382.091 80 400 62.0914 400 40C400 62.0914 417.909 80 440 80C462.091 80 480 62.0914 480 40C480 62.0914 497.909 80 520 80C542.091 80 560 62.0914 560 40C560 62.0914 577.909 80 600 80C622.091 80 640 62.0914 640 40C640 62.0914 657.909 80 680 80C702.091 80 720 62.0914 720 40C720 62.0914 737.909 80 760 80C782.091 80 800 62.0914 800 40C800 62.0914 817.909 80 840 80C862.091 80 880 62.0914 880 40C880 62.0914 897.909 80 920 80C942.091 80 960 62.0914 960 40C960 62.0914 977.909 80 1000 80C1022.09 80 1040 62.0914 1040 40C1040 62.0914 1057.91 80 1080 80C1102.09 80 1120 62.0914 1120 40C1120 62.0914 1137.91 80 1160 80C1182.09 80 1200 62.0914 1200 40C1200 62.0914 1217.91 80 1240 80C1262.09 80 1280 62.0914 1280 40C1280 62.0914 1297.91 80 1320 80C1342.09 80 1360 62.0914 1360 40C1360 62.0914 1377.91 80 1400 80C1422.09 80 1440 62.0914 1440 40C1440 62.0914 1457.91 80 1480 80C1502.09 80 1520 62.0914 1520 40C1520 62.0914 1537.91 80 1560 80C1582.09 80 1600 62.0914 1600 40C1600 62.0914 1617.91 80 1640 80C1662.09 80 1680 62.0914 1680 40C1680 62.0914 1697.91 80 1720 80C1742.09 80 1760 62.0914 1760 40C1760 62.0914 1777.91 80 1800 80C1822.09 80 1840 62.0914 1840 40C1840 62.0914 1857.91 80 1880 80C1902.09 80 1920 62.0914 1920 40C1920 62.0914 1937.91 80 1960 80C1982.09 80 2000 62.0914 2000 40C2000 62.0914 2017.91 80 2040 80C2062.09 80 2080 62.0914 2080 40C2080 62.0914 2097.91 80 2120 80C2142.09 80 2160 62.0914 2160 40C2160 62.0914 2177.91 80 2200 80C2222.09 80 2240 62.0914 2240 40C2240 62.0914 2257.91 80 2280 80C2302.09 80 2320 62.0914 2320 40C2320 62.0914 2337.91 80 2360 80C2382.09 80 2400 62.0914 2400 40V0H-960Z"/>
</mask>
<path d="M-960 0V40C-960 62.0914 -942.091 80 -920 80C-897.909 80 -880 62.0914 -880 40C-880 62.0914 -862.091 80 -840 80C-817.909 80 -800 62.0914 -800 40C-800 62.0914 -782.091 80 -760 80C-737.909 80 -720 62.0914 -720 40C-720 62.0914 -702.091 80 -680 80C-657.909 80 -640 62.0914 -640 40C-640 62.0914 -622.091 80 -600 80C-577.909 80 -560 62.0914 -560 40C-560 62.0914 -542.091 80 -520 80C-497.909 80 -480 62.0914 -480 40C-480 62.0914 -462.091 80 -440 80C-417.909 80 -400 62.0914 -400 40C-400 62.0914 -382.091 80 -360 80C-337.909 80 -320 62.0914 -320 40C-320 62.0914 -302.091 80 -280 80C-257.909 80 -240 62.0914 -240 40C-240 62.0914 -222.091 80 -200 80C-177.909 80 -160 62.0914 -160 40C-160 62.0914 -142.091 80 -120 80C-97.9086 80 -80 62.0914 -80 40C-80 62.0914 -62.0914 80 -40 80C-17.9086 80 0 62.0914 0 40C0 62.0914 17.9086 80 40 80C62.0914 80 80 62.0914 80 40C80 62.0914 97.9086 80 120 80C142.091 80 160 62.0914 160 40C160 62.0914 177.909 80 200 80C222.091 80 240 62.0914 240 40C240 62.0914 257.909 80 280 80C302.091 80 320 62.0914 320 40C320 62.0914 337.909 80 360 80C382.091 80 400 62.0914 400 40C400 62.0914 417.909 80 440 80C462.091 80 480 62.0914 480 40C480 62.0914 497.909 80 520 80C542.091 80 560 62.0914 560 40C560 62.0914 577.909 80 600 80C622.091 80 640 62.0914 640 40C640 62.0914 657.909 80 680 80C702.091 80 720 62.0914 720 40C720 62.0914 737.909 80 760 80C782.091 80 800 62.0914 800 40C800 62.0914 817.909 80 840 80C862.091 80 880 62.0914 880 40C880 62.0914 897.909 80 920 80C942.091 80 960 62.0914 960 40C960 62.0914 977.909 80 1000 80C1022.09 80 1040 62.0914 1040 40C1040 62.0914 1057.91 80 1080 80C1102.09 80 1120 62.0914 1120 40C1120 62.0914 1137.91 80 1160 80C1182.09 80 1200 62.0914 1200 40C1200 62.0914 1217.91 80 1240 80C1262.09 80 1280 62.0914 1280 40C1280 62.0914 1297.91 80 1320 80C1342.09 80 1360 62.0914 1360 40C1360 62.0914 1377.91 80 1400 80C1422.09 80 1440 62.0914 1440 40C1440 62.0914 1457.91 80 1480 80C1502.09 80 1520 62.0914 1520 40C1520 62.0914 1537.91 80 1560 80C1582.09 80 1600 62.0914 1600 40C1600 62.0914 1617.91 80 1640 80C1662.09 80 1680 62.0914 1680 40C1680 62.0914 1697.91 80 1720 80C1742.09 80 1760 62.0914 1760 40C1760 62.0914 1777.91 80 1800 80C1822.09 80 1840 62.0914 1840 40C1840 62.0914 1857.91 80 1880 80C1902.09 80 1920 62.0914 1920 40C1920 62.0914 1937.91 80 1960 80C1982.09 80 2000 62.0914 2000 40C2000 62.0914 2017.91 80 2040 80C2062.09 80 2080 62.0914 2080 40C2080 62.0914 2097.91 80 2120 80C2142.09 80 2160 62.0914 2160 40C2160 62.0914 2177.91 80 2200 80C2222.09 80 2240 62.0914 2240 40C2240 62.0914 2257.91 80 2280 80C2302.09 80 2320 62.0914 2320 40C2320 62.0914 2337.91 80 2360 80C2382.09 80 2400 62.0914 2400 40V0H-960Z" fill="#623508"/>
<path d="M-960 0H-963V-3H-960V0ZM2400 0V-3H2403V0H2400ZM-960 0H-957V40H-960H-963V0H-960ZM-960 40H-957C-957 60.4345 -940.435 77 -920 77V80V83C-943.748 83 -963 63.7482 -963 40H-960ZM-920 80V77C-899.565 77 -883 60.4345 -883 40H-880H-877C-877 63.7482 -896.252 83 -920 83V80ZM-880 40H-877C-877 60.4345 -860.435 77 -840 77V80V83C-863.748 83 -883 63.7482 -883 40H-880ZM-840 80V77C-819.565 77 -803 60.4345 -803 40H-800H-797C-797 63.7482 -816.252 83 -840 83V80ZM-800 40H-797C-797 60.4345 -780.435 77 -760 77V80V83C-783.748 83 -803 63.7482 -803 40H-800ZM-760 80V77C-739.565 77 -723 60.4345 -723 40H-720H-717C-717 63.7482 -736.252 83 -760 83V80ZM-720 40H-717C-717 60.4345 -700.435 77 -680 77V80V83C-703.748 83 -723 63.7482 -723 40H-720ZM-680 80V77C-659.565 77 -643 60.4345 -643 40H-640H-637C-637 63.7482 -656.252 83 -680 83V80ZM-640 40H-637C-637 60.4345 -620.435 77 -600 77V80V83C-623.748 83 -643 63.7482 -643 40H-640ZM-600 80V77C-579.565 77 -563 60.4345 -563 40H-560H-557C-557 63.7482 -576.252 83 -600 83V80ZM-560 40H-557C-557 60.4345 -540.435 77 -520 77V80V83C-543.748 83 -563 63.7482 -563 40H-560ZM-520 80V77C-499.565 77 -483 60.4345 -483 40H-480H-477C-477 63.7482 -496.252 83 -520 83V80ZM-480 40H-477C-477 60.4345 -460.435 77 -440 77V80V83C-463.748 83 -483 63.7482 -483 40H-480ZM-440 80V77C-419.565 77 -403 60.4345 -403 40H-400H-397C-397 63.7482 -416.252 83 -440 83V80ZM-400 40H-397C-397 60.4345 -380.435 77 -360 77V80V83C-383.748 83 -403 63.7482 -403 40H-400ZM-360 80V77C-339.565 77 -323 60.4345 -323 40H-320H-317C-317 63.7482 -336.252 83 -360 83V80ZM-320 40H-317C-317 60.4345 -300.435 77 -280 77V80V83C-303.748 83 -323 63.7482 -323 40H-320ZM-280 80V77C-259.565 77 -243 60.4345 -243 40H-240H-237C-237 63.7482 -256.252 83 -280 83V80ZM-240 40H-237C-237 60.4345 -220.435 77 -200 77V80V83C-223.748 83 -243 63.7482 -243 40H-240ZM-200 80V77C-179.565 77 -163 60.4345 -163 40H-160H-157C-157 63.7482 -176.252 83 -200 83V80ZM-160 40H-157C-157 60.4345 -140.435 77 -120 77V80V83C-143.748 83 -163 63.7482 -163 40H-160ZM-120 80V77C-99.5655 77 -83 60.4345 -83 40H-80H-77C-77 63.7482 -96.2518 83 -120 83V80ZM-80 40H-77C-77 60.4345 -60.4345 77 -40 77V80V83C-63.7482 83 -83 63.7482 -83 40H-80ZM-40 80V77C-19.5655 77 -3 60.4345 -3 40H0H3C3 63.7482 -16.2518 83 -40 83V80ZM0 40H3C3 60.4345 19.5655 77 40 77V80V83C16.2518 83 -3 63.7482 -3 40H0ZM40 80V77C60.4345 77 77 60.4345 77 40H80H83C83 63.7482 63.7482 83 40 83V80ZM80 40H83C83 60.4345 99.5655 77 120 77V80V83C96.2518 83 77 63.7482 77 40H80ZM120 80V77C140.435 77 157 60.4345 157 40H160H163C163 63.7482 143.748 83 120 83V80ZM160 40H163C163 60.4345 179.565 77 200 77V80V83C176.252 83 157 63.7482 157 40H160ZM200 80V77C220.435 77 237 60.4345 237 40H240H243C243 63.7482 223.748 83 200 83V80ZM240 40H243C243 60.4345 259.565 77 280 77V80V83C256.252 83 237 63.7482 237 40H240ZM280 80V77C300.435 77 317 60.4345 317 40H320H323C323 63.7482 303.748 83 280 83V80ZM320 40H323C323 60.4345 339.565 77 360 77V80V83C336.252 83 317 63.7482 317 40H320ZM360 80V77C380.435 77 397 60.4345 397 40H400H403C403 63.7482 383.748 83 360 83V80ZM400 40H403C403 60.4345 419.565 77 440 77V80V83C416.252 83 397 63.7482 397 40H400ZM440 80V77C460.435 77 477 60.4345 477 40H480H483C483 63.7482 463.748 83 440 83V80ZM480 40H483C483 60.4345 499.565 77 520 77V80V83C496.252 83 477 63.7482 477 40H480ZM520 80V77C540.435 77 557 60.4345 557 40H560H563C563 63.7482 543.748 83 520 83V80ZM560 40H563C563 60.4345 579.565 77 600 77V80V83C576.252 83 557 63.7482 557 40H560ZM600 80V77C620.435 77 637 60.4345 637 40H640H643C643 63.7482 623.748 83 600 83V80ZM640 40H643C643 60.4345 659.565 77 680 77V80V83C656.252 83 637 63.7482 637 40H640ZM680 80V77C700.435 77 717 60.4345 717 40H720H723C723 63.7482 703.748 83 680 83V80ZM720 40H723C723 60.4345 739.565 77 760 77V80V83C736.252 83 717 63.7482 717 40H720ZM760 80V77C780.435 77 797 60.4345 797 40H800H803C803 63.7482 783.748 83 760 83V80ZM800 40H803C803 60.4345 819.565 77 840 77V80V83C816.252 83 797 63.7482 797 40H800ZM840 80V77C860.435 77 877 60.4345 877 40H880H883C883 63.7482 863.748 83 840 83V80ZM880 40H883C883 60.4345 899.565 77 920 77V80V83C896.252 83 877 63.7482 877 40H880ZM920 80V77C940.435 77 957 60.4345 957 40H960H963C963 63.7482 943.748 83 920 83V80ZM960 40H963C963 60.4345 979.565 77 1000 77V80V83C976.252 83 957 63.7482 957 40H960ZM1000 80V77C1020.43 77 1037 60.4345 1037 40H1040H1043C1043 63.7482 1023.75 83 1000 83V80ZM1040 40H1043C1043 60.4345 1059.57 77 1080 77V80V83C1056.25 83 1037 63.7482 1037 40H1040ZM1080 80V77C1100.43 77 1117 60.4345 1117 40H1120H1123C1123 63.7482 1103.75 83 1080 83V80ZM1120 40H1123C1123 60.4345 1139.57 77 1160 77V80V83C1136.25 83 1117 63.7482 1117 40H1120ZM1160 80V77C1180.43 77 1197 60.4345 1197 40H1200H1203C1203 63.7482 1183.75 83 1160 83V80ZM1200 40H1203C1203 60.4345 1219.57 77 1240 77V80V83C1216.25 83 1197 63.7482 1197 40H1200ZM1240 80V77C1260.43 77 1277 60.4345 1277 40H1280H1283C1283 63.7482 1263.75 83 1240 83V80ZM1280 40H1283C1283 60.4345 1299.57 77 1320 77V80V83C1296.25 83 1277 63.7482 1277 40H1280ZM1320 80V77C1340.43 77 1357 60.4345 1357 40H1360H1363C1363 63.7482 1343.75 83 1320 83V80ZM1360 40H1363C1363 60.4345 1379.57 77 1400 77V80V83C1376.25 83 1357 63.7482 1357 40H1360ZM1400 80V77C1420.43 77 1437 60.4345 1437 40H1440H1443C1443 63.7482 1423.75 83 1400 83V80ZM1440 40H1443C1443 60.4345 1459.57 77 1480 77V80V83C1456.25 83 1437 63.7482 1437 40H1440ZM1480 80V77C1500.43 77 1517 60.4345 1517 40H1520H1523C1523 63.7482 1503.75 83 1480 83V80ZM1520 40H1523C1523 60.4345 1539.57 77 1560 77V80V83C1536.25 83 1517 63.7482 1517 40H1520ZM1560 80V77C1580.43 77 1597 60.4345 1597 40H1600H1603C1603 63.7482 1583.75 83 1560 83V80ZM1600 40H1603C1603 60.4345 1619.57 77 1640 77V80V83C1616.25 83 1597 63.7482 1597 40H1600ZM1640 80V77C1660.43 77 1677 60.4345 1677 40H1680H1683C1683 63.7482 1663.75 83 1640 83V80ZM1680 40H1683C1683 60.4345 1699.57 77 1720 77V80V83C1696.25 83 1677 63.7482 1677 40H1680ZM1720 80V77C1740.43 77 1757 60.4345 1757 40H1760H1763C1763 63.7482 1743.75 83 1720 83V80ZM1760 40H1763C1763 60.4345 1779.57 77 1800 77V80V83C1776.25 83 1757 63.7482 1757 40H1760ZM1800 80V77C1820.43 77 1837 60.4345 1837 40H1840H1843C1843 63.7482 1823.75 83 1800 83V80ZM1840 40H1843C1843 60.4345 1859.57 77 1880 77V80V83C1856.25 83 1837 63.7482 1837 40H1840ZM1880 80V77C1900.43 77 1917 60.4345 1917 40H1920H1923C1923 63.7482 1903.75 83 1880 83V80ZM1920 40H1923C1923 60.4345 1939.57 77 1960 77V80V83C1936.25 83 1917 63.7482 1917 40H1920ZM1960 80V77C1980.43 77 1997 60.4345 1997 40H2000H2003C2003 63.7482 1983.75 83 1960 83V80ZM2000 40H2003C2003 60.4345 2019.57 77 2040 77V80V83C2016.25 83 1997 63.7482 1997 40H2000ZM2040 80V77C2060.43 77 2077 60.4345 2077 40H2080H2083C2083 63.7482 2063.75 83 2040 83V80ZM2080 40H2083C2083 60.4345 2099.57 77 2120 77V80V83C2096.25 83 2077 63.7482 2077 40H2080ZM2120 80V77C2140.43 77 2157 60.4345 2157 40H2160H2163C2163 63.7482 2143.75 83 2120 83V80ZM2160 40H2163C2163 60.4345 2179.57 77 2200 77V80V83C2176.25 83 2157 63.7482 2157 40H2160ZM2200 80V77C2220.43 77 2237 60.4345 2237 40H2240H2243C2243 63.7482 2223.75 83 2200 83V80ZM2240 40H2243C2243 60.4345 2259.57 77 2280 77V80V83C2256.25 83 2237 63.7482 2237 40H2240ZM2280 80V77C2300.43 77 2317 60.4345 2317 40H2320H2323C2323 63.7482 2303.75 83 2280 83V80ZM2320 40H2323C2323 60.4345 2339.57 77 2360 77V80V83C2336.25 83 2317 63.7482 2317 40H2320ZM2360 80V77C2380.43 77 2397 60.4345 2397 40H2400H2403C2403 63.7482 2383.75 83 2360 83V80ZM2400 40H2397V0H2400H2403V40H2400ZM2400 0V3H-960V0V-3H2400V0Z" fill="#FFFEBC" mask="url(#path-1-inside-1_2126_490)"/>
</g>
<defs>
<filter id="filter0_d_2126_490" x="-964" y="-3" width="3368" height="88" filterUnits="userSpaceOnUse" color-interpolation-filters="sRGB">
<feFlood flood-opacity="0" result="BackgroundImageFix"/>
<feColorMatrix in="SourceAlpha" type="matrix" values="0 0 0 0 0 0 0 0 0 0 0 0 0 0 0 0 0 0 127 0" result="hardAlpha"/>
<feOffset dy="1"/>
<feGaussianBlur stdDeviation="2"/>
<feComposite in2="hardAlpha" operator="out"/>
<feColorMatrix type="matrix" values="0 0 0 0 0 0 0 0 0 0 0 0 0 0 0 0 0 0 0.25 0"/>
<feBlend mode="normal" in2="BackgroundImageFix" result="effect1_dropShadow_2126_490"/>
<feBlend mode="normal" in="SourceGraphic" in2="effect1_dropShadow_2126_490" result="shape"/>
</filter>
</defs>
</svg>
