<svg xmlns="http://www.w3.org/2000/svg" width="640" height="70" viewBox="0 0 640 70">
  <defs>
    <linearGradient id="g" x1="0" y1="0" x2="1" y2="0">
      <stop offset="0" stop-color="#D8A03F" stop-opacity="0"/>
      <stop offset="0.18" stop-color="#D8A03F"/>
      <stop offset="0.5" stop-color="#F3D289"/>
      <stop offset="0.82" stop-color="#D8A03F"/>
      <stop offset="1" stop-color="#D8A03F" stop-opacity="0"/>
    </linearGradient>
    <filter id="s" x="-20%" y="-50%" width="140%" height="200%">
      <feDropShadow dx="0" dy="2" stdDeviation="2" flood-color="#000" flood-opacity="0.25"/>
    </filter>
  </defs>

  <!-- center medallion -->
  <g filter="url(#s)" fill="none" stroke="url(#g)" stroke-width="3" stroke-linecap="round">
    <path d="M30 35 H260" />
    <path d="M380 35 H610" />
  </g>

  <g filter="url(#s)">
    <path d="M320 10
             C342 16 352 28 352 35
             C352 42 342 54 320 60
             C298 54 288 42 288 35
             C288 28 298 16 320 10 Z"
          fill="rgba(216,160,63,0.18)" stroke="#D8A03F" stroke-width="2"/>
    <path d="M320 18
             C334 22 340 30 340 35
             C340 40 334 48 320 52
             C306 48 300 40 300 35
             C300 30 306 22 320 18 Z"
          fill="none" stroke="#D8A03F" stroke-width="2"/>
    <circle cx="320" cy="35" r="4" fill="#D8A03F"/>
    <circle cx="320" cy="35" r="9" fill="none" stroke="#D8A03F" stroke-width="2" opacity="0.85"/>
  </g>

  <!-- side flourishes -->
  <g fill="none" stroke="#D8A03F" stroke-width="2" opacity="0.9">
    <path d="M78 35
             c18 -16 36 -16 54 0
             c-18 16 -36 16 -54 0z" />
    <path d="M508 35
             c18 -16 36 -16 54 0
             c-18 16 -36 16 -54 0z" />
  </g>
</svg>
