<svg width="1440" height="57" viewBox="0 0 1440 57" fill="none" xmlns="http://www.w3.org/2000/svg">
<g clip-path="url(#clip0_2161_70)">
<g filter="url(#filter0_d_2161_70)">
<mask id="path-1-inside-1_2161_70" fill="white">
<path d="M0 57V28.4287C8.10693e-05 12.6493 12.7918 -0.142521 28.5713 -0.142578C44.3508 -0.142578 57.1425 12.6492 57.1426 28.4287C57.1427 12.6493 69.9345 -0.142389 85.7139 -0.142578C101.493 -0.142578 114.285 12.6492 114.285 28.4287C114.285 12.6492 127.078 -0.142578 142.857 -0.142578C158.637 -0.142371 171.429 12.6493 171.429 28.4287C171.429 12.6493 184.221 -0.142521 200 -0.142578C215.78 -0.142578 228.571 12.6492 228.571 28.4287C228.571 12.6493 241.363 -0.142389 257.143 -0.142578C272.922 -0.142578 285.714 12.6492 285.714 28.4287C285.714 12.6492 298.507 -0.142578 314.286 -0.142578C330.065 -0.142371 342.857 12.6493 342.857 28.4287C342.858 12.6492 355.649 -0.142578 371.429 -0.142578C387.208 -0.142503 400 12.6493 400 28.4287C400 12.6493 412.792 -0.142521 428.571 -0.142578C444.351 -0.142578 457.143 12.6492 457.143 28.4287C457.143 12.6494 469.935 -0.142324 485.714 -0.142578C501.493 -0.142578 514.286 12.6492 514.286 28.4287C514.286 12.6492 527.078 -0.142578 542.857 -0.142578C558.637 -0.142437 571.429 12.6493 571.429 28.4287C571.429 12.6492 584.22 -0.142578 600 -0.142578C615.78 -0.142569 628.571 12.6492 628.571 28.4287C628.571 12.6493 641.363 -0.142455 657.143 -0.142578C672.922 -0.142578 685.714 12.6492 685.714 28.4287C685.714 12.6492 698.507 -0.142578 714.286 -0.142578C730.065 -0.142371 742.857 12.6493 742.857 28.4287C742.858 12.6492 755.649 -0.142578 771.429 -0.142578C787.208 -0.142503 800 12.6493 800 28.4287C800 12.6493 812.792 -0.142521 828.571 -0.142578C844.351 -0.142578 857.143 12.6492 857.143 28.4287C857.143 12.6494 869.935 -0.142324 885.714 -0.142578C901.493 -0.142578 914.286 12.6492 914.286 28.4287C914.286 12.6492 927.078 -0.142578 942.857 -0.142578C958.637 -0.142437 971.429 12.6493 971.429 28.4287C971.429 12.6492 984.22 -0.142578 1000 -0.142578C1015.78 -0.142569 1028.57 12.6492 1028.57 28.4287C1028.57 12.6493 1041.36 -0.142455 1057.14 -0.142578C1072.92 -0.142578 1085.71 12.6492 1085.71 28.4287C1085.71 12.6492 1098.51 -0.142578 1114.29 -0.142578C1130.07 -0.142371 1142.86 12.6493 1142.86 28.4287C1142.86 12.6492 1155.65 -0.142578 1171.43 -0.142578C1187.21 -0.142503 1200 12.6493 1200 28.4287C1200 12.6493 1212.79 -0.142521 1228.57 -0.142578C1244.35 -0.142578 1257.14 12.6492 1257.14 28.4287C1257.14 12.6494 1269.93 -0.142324 1285.71 -0.142578C1301.49 -0.142578 1314.29 12.6492 1314.29 28.4287C1314.29 12.6492 1327.08 -0.142578 1342.86 -0.142578C1358.64 -0.142437 1371.43 12.6493 1371.43 28.4287C1371.43 12.6492 1384.22 -0.142578 1400 -0.142578C1415.78 -0.142569 1428.57 12.6492 1428.57 28.4287C1428.57 12.6493 1441.36 -0.142422 1457.14 -0.142578C1472.92 -0.142578 1485.71 12.6492 1485.71 28.4287C1485.71 12.6492 1498.51 -0.142578 1514.29 -0.142578C1530.07 -0.142338 1542.86 12.6494 1542.86 28.4287C1542.86 12.6492 1555.65 -0.142578 1571.43 -0.142578C1586.96 -0.142504 1599.6 12.2527 1599.99 27.6914L1600 28.4287C1600 12.6493 1612.79 -0.142488 1628.57 -0.142578C1644.35 -0.142578 1657.14 12.6492 1657.14 28.4287C1657.14 12.6494 1669.93 -0.142356 1685.71 -0.142578C1701.49 -0.142578 1714.29 12.6492 1714.29 28.4287C1714.29 12.6492 1727.08 -0.142578 1742.86 -0.142578C1758.64 -0.142437 1771.43 12.6493 1771.43 28.4287C1771.43 12.6492 1784.22 -0.142578 1800 -0.142578C1815.78 -0.142569 1828.57 12.6492 1828.57 28.4287C1828.57 12.6493 1841.36 -0.142422 1857.14 -0.142578C1872.92 -0.142578 1885.71 12.6492 1885.71 28.4287C1885.71 12.6492 1898.51 -0.142578 1914.29 -0.142578C1930.07 -0.142354 1942.86 12.6493 1942.86 28.4287C1942.86 12.6492 1955.65 -0.142578 1971.43 -0.142578C1987.21 -0.142503 2000 12.6493 2000 28.4287C2000 12.6493 2012.79 -0.142505 2028.57 -0.142578C2044.35 -0.142578 2057.14 12.6492 2057.14 28.4287C2057.14 12.6494 2069.93 -0.142356 2085.71 -0.142578C2101.49 -0.142578 2114.29 12.6492 2114.29 28.4287C2114.29 12.6492 2127.08 -0.142578 2142.86 -0.142578C2158.64 -0.142429 2171.43 12.6493 2171.43 28.4287C2171.43 12.6492 2184.22 -0.142578 2200 -0.142578C2215.78 -0.142577 2228.57 12.6492 2228.57 28.4287C2228.57 12.6493 2241.36 -0.142427 2257.14 -0.142578C2272.92 -0.142578 2285.71 12.6492 2285.71 28.4287C2285.71 12.6492 2298.51 -0.142578 2314.29 -0.142578C2330.07 -0.142352 2342.86 12.6493 2342.86 28.4287C2342.86 12.6492 2355.65 -0.142578 2371.43 -0.142578C2387.21 -0.142503 2400 12.6493 2400 28.4287V57H0Z"/>
</mask>
<path d="M0 57V28.4287C8.10693e-05 12.6493 12.7918 -0.142521 28.5713 -0.142578C44.3508 -0.142578 57.1425 12.6492 57.1426 28.4287C57.1427 12.6493 69.9345 -0.142389 85.7139 -0.142578C101.493 -0.142578 114.285 12.6492 114.285 28.4287C114.285 12.6492 127.078 -0.142578 142.857 -0.142578C158.637 -0.142371 171.429 12.6493 171.429 28.4287C171.429 12.6493 184.221 -0.142521 200 -0.142578C215.78 -0.142578 228.571 12.6492 228.571 28.4287C228.571 12.6493 241.363 -0.142389 257.143 -0.142578C272.922 -0.142578 285.714 12.6492 285.714 28.4287C285.714 12.6492 298.507 -0.142578 314.286 -0.142578C330.065 -0.142371 342.857 12.6493 342.857 28.4287C342.858 12.6492 355.649 -0.142578 371.429 -0.142578C387.208 -0.142503 400 12.6493 400 28.4287C400 12.6493 412.792 -0.142521 428.571 -0.142578C444.351 -0.142578 457.143 12.6492 457.143 28.4287C457.143 12.6494 469.935 -0.142324 485.714 -0.142578C501.493 -0.142578 514.286 12.6492 514.286 28.4287C514.286 12.6492 527.078 -0.142578 542.857 -0.142578C558.637 -0.142437 571.429 12.6493 571.429 28.4287C571.429 12.6492 584.22 -0.142578 600 -0.142578C615.78 -0.142569 628.571 12.6492 628.571 28.4287C628.571 12.6493 641.363 -0.142455 657.143 -0.142578C672.922 -0.142578 685.714 12.6492 685.714 28.4287C685.714 12.6492 698.507 -0.142578 714.286 -0.142578C730.065 -0.142371 742.857 12.6493 742.857 28.4287C742.858 12.6492 755.649 -0.142578 771.429 -0.142578C787.208 -0.142503 800 12.6493 800 28.4287C800 12.6493 812.792 -0.142521 828.571 -0.142578C844.351 -0.142578 857.143 12.6492 857.143 28.4287C857.143 12.6494 869.935 -0.142324 885.714 -0.142578C901.493 -0.142578 914.286 12.6492 914.286 28.4287C914.286 12.6492 927.078 -0.142578 942.857 -0.142578C958.637 -0.142437 971.429 12.6493 971.429 28.4287C971.429 12.6492 984.22 -0.142578 1000 -0.142578C1015.78 -0.142569 1028.57 12.6492 1028.57 28.4287C1028.57 12.6493 1041.36 -0.142455 1057.14 -0.142578C1072.92 -0.142578 1085.71 12.6492 1085.71 28.4287C1085.71 12.6492 1098.51 -0.142578 1114.29 -0.142578C1130.07 -0.142371 1142.86 12.6493 1142.86 28.4287C1142.86 12.6492 1155.65 -0.142578 1171.43 -0.142578C1187.21 -0.142503 1200 12.6493 1200 28.4287C1200 12.6493 1212.79 -0.142521 1228.57 -0.142578C1244.35 -0.142578 1257.14 12.6492 1257.14 28.4287C1257.14 12.6494 1269.93 -0.142324 1285.71 -0.142578C1301.49 -0.142578 1314.29 12.6492 1314.29 28.4287C1314.29 12.6492 1327.08 -0.142578 1342.86 -0.142578C1358.64 -0.142437 1371.43 12.6493 1371.43 28.4287C1371.43 12.6492 1384.22 -0.142578 1400 -0.142578C1415.78 -0.142569 1428.57 12.6492 1428.57 28.4287C1428.57 12.6493 1441.36 -0.142422 1457.14 -0.142578C1472.92 -0.142578 1485.71 12.6492 1485.71 28.4287C1485.71 12.6492 1498.51 -0.142578 1514.29 -0.142578C1530.07 -0.142338 1542.86 12.6494 1542.86 28.4287C1542.86 12.6492 1555.65 -0.142578 1571.43 -0.142578C1586.96 -0.142504 1599.6 12.2527 1599.99 27.6914L1600 28.4287C1600 12.6493 1612.79 -0.142488 1628.57 -0.142578C1644.35 -0.142578 1657.14 12.6492 1657.14 28.4287C1657.14 12.6494 1669.93 -0.142356 1685.71 -0.142578C1701.49 -0.142578 1714.29 12.6492 1714.29 28.4287C1714.29 12.6492 1727.08 -0.142578 1742.86 -0.142578C1758.64 -0.142437 1771.43 12.6493 1771.43 28.4287C1771.43 12.6492 1784.22 -0.142578 1800 -0.142578C1815.78 -0.142569 1828.57 12.6492 1828.57 28.4287C1828.57 12.6493 1841.36 -0.142422 1857.14 -0.142578C1872.92 -0.142578 1885.71 12.6492 1885.71 28.4287C1885.71 12.6492 1898.51 -0.142578 1914.29 -0.142578C1930.07 -0.142354 1942.86 12.6493 1942.86 28.4287C1942.86 12.6492 1955.65 -0.142578 1971.43 -0.142578C1987.21 -0.142503 2000 12.6493 2000 28.4287C2000 12.6493 2012.79 -0.142505 2028.57 -0.142578C2044.35 -0.142578 2057.14 12.6492 2057.14 28.4287C2057.14 12.6494 2069.93 -0.142356 2085.71 -0.142578C2101.49 -0.142578 2114.29 12.6492 2114.29 28.4287C2114.29 12.6492 2127.08 -0.142578 2142.86 -0.142578C2158.64 -0.142429 2171.43 12.6493 2171.43 28.4287C2171.43 12.6492 2184.22 -0.142578 2200 -0.142578C2215.78 -0.142577 2228.57 12.6492 2228.57 28.4287C2228.57 12.6493 2241.36 -0.142427 2257.14 -0.142578C2272.92 -0.142578 2285.71 12.6492 2285.71 28.4287C2285.71 12.6492 2298.51 -0.142578 2314.29 -0.142578C2330.07 -0.142352 2342.86 12.6493 2342.86 28.4287C2342.86 12.6492 2355.65 -0.142578 2371.43 -0.142578C2387.21 -0.142503 2400 12.6493 2400 28.4287V57H0Z" fill="#623508"/>
<path d="M0 57H-3V60H0V57ZM0 28.4287L-3 28.4287V28.4287H0ZM28.5713 -0.142578L28.5713 -3.14258L28.5713 -3.14258L28.5713 -0.142578ZM57.1426 28.4287L54.1426 28.4287L60.1426 28.4287L57.1426 28.4287ZM85.7139 -0.142578L85.7139 -3.14258L85.7138 -3.14258L85.7139 -0.142578ZM114.285 28.4287L111.285 28.4287L117.285 28.4287L114.285 28.4287ZM142.857 -0.142578L142.857 -3.14258H142.857V-0.142578ZM171.429 28.4287L168.429 28.4287L174.429 28.4287L171.429 28.4287ZM200 -0.142578L200 -3.14258L200 -3.14258L200 -0.142578ZM228.571 28.4287L225.571 28.4287L231.571 28.4287L228.571 28.4287ZM257.143 -0.142578L257.143 -3.14258L257.143 -3.14258L257.143 -0.142578ZM285.714 28.4287L282.714 28.4287L288.714 28.4287L285.714 28.4287ZM314.286 -0.142578L314.286 -3.14258H314.286V-0.142578ZM342.857 28.4287L339.857 28.4287L345.857 28.4287L342.857 28.4287ZM371.429 -0.142578L371.429 -3.14258H371.429V-0.142578ZM400 28.4287L397 28.4287L403 28.4287L400 28.4287ZM428.571 -0.142578L428.571 -3.14258L428.571 -3.14258L428.571 -0.142578ZM457.143 28.4287L454.143 28.4287L460.143 28.4287L457.143 28.4287ZM485.714 -0.142578L485.714 -3.14258L485.714 -3.14258L485.714 -0.142578ZM514.286 28.4287L511.286 28.4287L517.286 28.4287L514.286 28.4287ZM542.857 -0.142578L542.857 -3.14258H542.857V-0.142578ZM571.429 28.4287L568.429 28.4287L574.429 28.4287L571.429 28.4287ZM600 -0.142578L600 -3.14258H600V-0.142578ZM628.571 28.4287L625.571 28.4287L631.571 28.4287L628.571 28.4287ZM657.143 -0.142578L657.143 -3.14258L657.143 -3.14258L657.143 -0.142578ZM685.714 28.4287L682.714 28.4287L688.714 28.4287L685.714 28.4287ZM714.286 -0.142578L714.286 -3.14258H714.286V-0.142578ZM742.857 28.4287L739.857 28.4287L745.857 28.4287L742.857 28.4287ZM771.429 -0.142578L771.429 -3.14258H771.429V-0.142578ZM800 28.4287L797 28.4287L803 28.4287L800 28.4287ZM828.571 -0.142578L828.571 -3.14258L828.571 -3.14258L828.571 -0.142578ZM857.143 28.4287L854.143 28.4287L860.143 28.4287L857.143 28.4287ZM885.714 -0.142578L885.714 -3.14258L885.714 -3.14258L885.714 -0.142578ZM914.286 28.4287L911.286 28.4287L917.286 28.4287L914.286 28.4287ZM942.857 -0.142578L942.857 -3.14258H942.857V-0.142578ZM971.429 28.4287L968.429 28.4287L974.429 28.4287L971.429 28.4287ZM1000 -0.142578L1000 -3.14258H1000V-0.142578ZM1028.57 28.4287L1025.57 28.4287L1031.57 28.4287L1028.57 28.4287ZM1057.14 -0.142578L1057.14 -3.14258L1057.14 -3.14258L1057.14 -0.142578ZM1085.71 28.4287L1082.71 28.4287L1088.71 28.4287L1085.71 28.4287ZM1114.29 -0.142578L1114.29 -3.14258H1114.29V-0.142578ZM1142.86 28.4287L1139.86 28.4287L1145.86 28.4287L1142.86 28.4287ZM1171.43 -0.142578L1171.43 -3.14258H1171.43V-0.142578ZM1200 28.4287L1197 28.4287L1203 28.4287L1200 28.4287ZM1228.57 -0.142578L1228.57 -3.14258L1228.57 -3.14258L1228.57 -0.142578ZM1257.14 28.4287L1254.14 28.4287L1260.14 28.4287L1257.14 28.4287ZM1285.71 -0.142578L1285.71 -3.14258L1285.71 -3.14258L1285.71 -0.142578ZM1314.29 28.4287L1311.29 28.4287L1317.29 28.4287L1314.29 28.4287ZM1342.86 -0.142578L1342.86 -3.14258H1342.86V-0.142578ZM1371.43 28.4287L1368.43 28.4287L1374.43 28.4287L1371.43 28.4287ZM1400 -0.142578L1400 -3.14258H1400V-0.142578ZM1428.57 28.4287L1425.57 28.4287L1431.57 28.4287L1428.57 28.4287ZM1457.14 -0.142578L1457.14 -3.14258L1457.14 -3.14258L1457.14 -0.142578ZM1485.71 28.4287L1482.71 28.4287L1488.71 28.4287L1485.71 28.4287ZM1514.29 -0.142578L1514.29 -3.14258H1514.29V-0.142578ZM1542.86 28.4287L1539.86 28.4287L1545.86 28.4287L1542.86 28.4287ZM1571.43 -0.142578L1571.43 -3.14258H1571.43V-0.142578ZM1599.99 27.6914L1602.99 27.6517L1602.99 27.6335L1602.99 27.6154L1599.99 27.6914ZM1600 28.4287L1597 28.4684L1603 28.4287L1600 28.4287ZM1628.57 -0.142578L1628.57 -3.14258L1628.57 -3.14258L1628.57 -0.142578ZM1657.14 28.4287L1654.14 28.4287L1660.14 28.4287L1657.14 28.4287ZM1685.71 -0.142578L1685.71 -3.14258L1685.71 -3.14258L1685.71 -0.142578ZM1714.29 28.4287L1711.29 28.4287L1717.29 28.4287L1714.29 28.4287ZM1742.86 -0.142578L1742.86 -3.14258H1742.86V-0.142578ZM1771.43 28.4287L1768.43 28.4287L1774.43 28.4287L1771.43 28.4287ZM1800 -0.142578L1800 -3.14258H1800V-0.142578ZM1828.57 28.4287L1825.57 28.4287L1831.57 28.4287L1828.57 28.4287ZM1857.14 -0.142578L1857.14 -3.14258L1857.14 -3.14258L1857.14 -0.142578ZM1885.71 28.4287L1882.71 28.4287L1888.71 28.4287L1885.71 28.4287ZM1914.29 -0.142578L1914.29 -3.14258H1914.29V-0.142578ZM1942.86 28.4287L1939.86 28.4287L1945.86 28.4287L1942.86 28.4287ZM1971.43 -0.142578L1971.43 -3.14258H1971.43V-0.142578ZM2000 28.4287L1997 28.4287L2003 28.4287L2000 28.4287ZM2028.57 -0.142578L2028.57 -3.14258L2028.57 -3.14258L2028.57 -0.142578ZM2057.14 28.4287L2054.14 28.4287L2060.14 28.4287L2057.14 28.4287ZM2085.71 -0.142578L2085.71 -3.14258L2085.71 -3.14258L2085.71 -0.142578ZM2114.29 28.4287L2111.29 28.4287L2117.29 28.4287L2114.29 28.4287ZM2142.86 -0.142578L2142.86 -3.14258H2142.86V-0.142578ZM2171.43 28.4287L2168.43 28.4287L2174.43 28.4287L2171.43 28.4287ZM2200 -0.142578L2200 -3.14258H2200V-0.142578ZM2228.57 28.4287L2225.57 28.4287L2231.57 28.4287L2228.57 28.4287ZM2257.14 -0.142578L2257.14 -3.14258L2257.14 -3.14258L2257.14 -0.142578ZM2285.71 28.4287L2282.71 28.4287L2288.71 28.4287L2285.71 28.4287ZM2314.29 -0.142578L2314.29 -3.14258H2314.29V-0.142578ZM2342.86 28.4287L2339.86 28.4287L2345.86 28.4287L2342.86 28.4287ZM2371.43 -0.142578L2371.43 -3.14258H2371.43V-0.142578ZM2400 28.4287L2403 28.4287L2403 28.4287L2400 28.4287ZM2400 57V60H2403V57H2400ZM0 57H3V28.4287H0H-3V57H0ZM0 28.4287L3 28.4287C3.00007 14.3061 14.4487 2.85747 28.5713 2.85742L28.5713 -0.142578L28.5713 -3.14258C11.135 -3.14252 -2.99991 10.9924 -3 28.4287L0 28.4287ZM28.5713 -0.142578V2.85742C42.6939 2.85742 54.1425 14.3061 54.1426 28.4287L57.1426 28.4287L60.1426 28.4287C60.1425 10.9924 46.0077 -3.14258 28.5713 -3.14258V-0.142578ZM57.1426 28.4287L60.1426 28.4287C60.1427 14.3062 71.5914 2.85759 85.7139 2.85742L85.7139 -0.142578L85.7138 -3.14258C68.2777 -3.14237 54.1427 10.9925 54.1426 28.4287L57.1426 28.4287ZM85.7139 -0.142578V2.85742C99.8365 2.85742 111.285 14.3061 111.285 28.4287L114.285 28.4287L117.285 28.4287C117.285 10.9924 103.15 -3.14258 85.7139 -3.14258V-0.142578ZM114.285 28.4287L117.285 28.4287C117.285 14.3062 128.735 2.85742 142.857 2.85742V-0.142578V-3.14258C125.421 -3.14258 111.285 10.9922 111.285 28.4287L114.285 28.4287ZM142.857 -0.142578L142.857 2.85742C156.98 2.85761 168.429 14.3062 168.429 28.4287L171.429 28.4287L174.429 28.4287C174.429 10.9925 160.294 -3.14235 142.857 -3.14258L142.857 -0.142578ZM171.429 28.4287L174.429 28.4287C174.429 14.3061 185.877 2.85747 200 2.85742L200 -0.142578L200 -3.14258C182.564 -3.14252 168.429 10.9924 168.429 28.4287L171.429 28.4287ZM200 -0.142578V2.85742C214.123 2.85742 225.571 14.3061 225.571 28.4287L228.571 28.4287L231.571 28.4287C231.571 10.9924 217.436 -3.14258 200 -3.14258V-0.142578ZM228.571 28.4287L231.571 28.4287C231.571 14.3062 243.02 2.85759 257.143 2.85742L257.143 -0.142578L257.143 -3.14258C239.706 -3.14237 225.571 10.9925 225.571 28.4287L228.571 28.4287ZM257.143 -0.142578V2.85742C271.265 2.85742 282.714 14.3061 282.714 28.4287L285.714 28.4287L288.714 28.4287C288.714 10.9924 274.579 -3.14258 257.143 -3.14258V-0.142578ZM285.714 28.4287L288.714 28.4287C288.714 14.3062 300.163 2.85742 314.286 2.85742V-0.142578V-3.14258C296.85 -3.14258 282.714 10.9922 282.714 28.4287L285.714 28.4287ZM314.286 -0.142578L314.286 2.85742C328.409 2.85761 339.857 14.3062 339.857 28.4287L342.857 28.4287L345.857 28.4287C345.857 10.9925 331.722 -3.14235 314.286 -3.14258L314.286 -0.142578ZM342.857 28.4287L345.857 28.4287C345.857 14.3061 357.306 2.85742 371.429 2.85742V-0.142578V-3.14258C353.992 -3.14258 339.858 10.9924 339.857 28.4287L342.857 28.4287ZM371.429 -0.142578L371.429 2.85742C385.551 2.85749 397 14.3061 397 28.4287L400 28.4287L403 28.4287C403 10.9924 388.865 -3.14249 371.429 -3.14258L371.429 -0.142578ZM400 28.4287L403 28.4287C403 14.3061 414.449 2.85747 428.571 2.85742L428.571 -0.142578L428.571 -3.14258C411.135 -3.14252 397 10.9924 397 28.4287L400 28.4287ZM428.571 -0.142578V2.85742C442.694 2.85742 454.143 14.3061 454.143 28.4287L457.143 28.4287L460.143 28.4287C460.143 10.9924 446.008 -3.14258 428.571 -3.14258V-0.142578ZM457.143 28.4287L460.143 28.4287C460.143 14.3063 471.591 2.85765 485.714 2.85742L485.714 -0.142578L485.714 -3.14258C468.278 -3.1423 454.143 10.9925 454.143 28.4287L457.143 28.4287ZM485.714 -0.142578V2.85742C499.837 2.85742 511.286 14.3062 511.286 28.4287L514.286 28.4287L517.286 28.4287C517.286 10.9922 503.15 -3.14258 485.714 -3.14258V-0.142578ZM514.286 28.4287L517.286 28.4287C517.286 14.3061 528.735 2.85742 542.857 2.85742V-0.142578V-3.14258C525.421 -3.14258 511.286 10.9924 511.286 28.4287L514.286 28.4287ZM542.857 -0.142578L542.857 2.85742C556.98 2.85755 568.429 14.3062 568.429 28.4287L571.429 28.4287L574.429 28.4287C574.429 10.9924 560.294 -3.14242 542.857 -3.14258L542.857 -0.142578ZM571.429 28.4287L574.429 28.4287C574.429 14.3061 585.877 2.85742 600 2.85742V-0.142578V-3.14258C582.564 -3.14258 568.429 10.9924 568.429 28.4287L571.429 28.4287ZM600 -0.142578L600 2.85742C614.123 2.85743 625.571 14.3061 625.571 28.4287L628.571 28.4287L631.571 28.4287C631.571 10.9924 617.436 -3.14257 600 -3.14258L600 -0.142578ZM628.571 28.4287L631.571 28.4287C631.571 14.3062 643.02 2.85753 657.143 2.85742L657.143 -0.142578L657.143 -3.14258C639.706 -3.14244 625.571 10.9924 625.571 28.4287L628.571 28.4287ZM657.143 -0.142578V2.85742C671.265 2.85742 682.714 14.3061 682.714 28.4287L685.714 28.4287L688.714 28.4287C688.714 10.9924 674.579 -3.14258 657.143 -3.14258V-0.142578ZM685.714 28.4287L688.714 28.4287C688.714 14.3062 700.163 2.85742 714.286 2.85742V-0.142578V-3.14258C696.85 -3.14258 682.714 10.9922 682.714 28.4287L685.714 28.4287ZM714.286 -0.142578L714.286 2.85742C728.409 2.85761 739.857 14.3062 739.857 28.4287L742.857 28.4287L745.857 28.4287C745.857 10.9925 731.722 -3.14235 714.286 -3.14258L714.286 -0.142578ZM742.857 28.4287L745.857 28.4287C745.857 14.3061 757.306 2.85742 771.429 2.85742V-0.142578V-3.14258C753.992 -3.14258 739.858 10.9924 739.857 28.4287L742.857 28.4287ZM771.429 -0.142578L771.429 2.85742C785.551 2.85749 797 14.3061 797 28.4287L800 28.4287L803 28.4287C803 10.9924 788.865 -3.14249 771.429 -3.14258L771.429 -0.142578ZM800 28.4287L803 28.4287C803 14.3061 814.449 2.85747 828.571 2.85742L828.571 -0.142578L828.571 -3.14258C811.135 -3.14252 797 10.9924 797 28.4287L800 28.4287ZM828.571 -0.142578V2.85742C842.694 2.85742 854.143 14.3061 854.143 28.4287L857.143 28.4287L860.143 28.4287C860.143 10.9924 846.008 -3.14258 828.571 -3.14258V-0.142578ZM857.143 28.4287L860.143 28.4287C860.143 14.3063 871.591 2.85765 885.714 2.85742L885.714 -0.142578L885.714 -3.14258C868.278 -3.1423 854.143 10.9925 854.143 28.4287L857.143 28.4287ZM885.714 -0.142578V2.85742C899.837 2.85742 911.286 14.3062 911.286 28.4287L914.286 28.4287L917.286 28.4287C917.286 10.9922 903.15 -3.14258 885.714 -3.14258V-0.142578ZM914.286 28.4287L917.286 28.4287C917.286 14.3061 928.735 2.85742 942.857 2.85742V-0.142578V-3.14258C925.421 -3.14258 911.286 10.9924 911.286 28.4287L914.286 28.4287ZM942.857 -0.142578L942.857 2.85742C956.98 2.85755 968.429 14.3062 968.429 28.4287L971.429 28.4287L974.429 28.4287C974.429 10.9924 960.294 -3.14242 942.857 -3.14258L942.857 -0.142578ZM971.429 28.4287L974.429 28.4287C974.429 14.3061 985.877 2.85742 1000 2.85742V-0.142578V-3.14258C982.564 -3.14258 968.429 10.9924 968.429 28.4287L971.429 28.4287ZM1000 -0.142578L1000 2.85742C1014.12 2.85743 1025.57 14.3061 1025.57 28.4287L1028.57 28.4287L1031.57 28.4287C1031.57 10.9924 1017.44 -3.14257 1000 -3.14258L1000 -0.142578ZM1028.57 28.4287L1031.57 28.4287C1031.57 14.3062 1043.02 2.85753 1057.14 2.85742L1057.14 -0.142578L1057.14 -3.14258C1039.71 -3.14244 1025.57 10.9924 1025.57 28.4287L1028.57 28.4287ZM1057.14 -0.142578V2.85742C1071.27 2.85742 1082.71 14.3061 1082.71 28.4287L1085.71 28.4287L1088.71 28.4287C1088.71 10.9924 1074.58 -3.14258 1057.14 -3.14258V-0.142578ZM1085.71 28.4287L1088.71 28.4287C1088.71 14.3062 1100.16 2.85742 1114.29 2.85742V-0.142578V-3.14258C1096.85 -3.14258 1082.71 10.9922 1082.71 28.4287L1085.71 28.4287ZM1114.29 -0.142578L1114.29 2.85742C1128.41 2.85761 1139.86 14.3062 1139.86 28.4287L1142.86 28.4287L1145.86 28.4287C1145.86 10.9925 1131.72 -3.14235 1114.29 -3.14258L1114.29 -0.142578ZM1142.86 28.4287L1145.86 28.4287C1145.86 14.3061 1157.31 2.85742 1171.43 2.85742V-0.142578V-3.14258C1153.99 -3.14258 1139.86 10.9924 1139.86 28.4287L1142.86 28.4287ZM1171.43 -0.142578L1171.43 2.85742C1185.55 2.85749 1197 14.3061 1197 28.4287L1200 28.4287L1203 28.4287C1203 10.9924 1188.87 -3.14249 1171.43 -3.14258L1171.43 -0.142578ZM1200 28.4287L1203 28.4287C1203 14.3061 1214.45 2.85747 1228.57 2.85742L1228.57 -0.142578L1228.57 -3.14258C1211.13 -3.14252 1197 10.9924 1197 28.4287L1200 28.4287ZM1228.57 -0.142578V2.85742C1242.69 2.85742 1254.14 14.3061 1254.14 28.4287L1257.14 28.4287L1260.14 28.4287C1260.14 10.9924 1246.01 -3.14258 1228.57 -3.14258V-0.142578ZM1257.14 28.4287L1260.14 28.4287C1260.14 14.3063 1271.59 2.85765 1285.71 2.85742L1285.71 -0.142578L1285.71 -3.14258C1268.28 -3.1423 1254.14 10.9925 1254.14 28.4287L1257.14 28.4287ZM1285.71 -0.142578V2.85742C1299.84 2.85742 1311.29 14.3062 1311.29 28.4287L1314.29 28.4287L1317.29 28.4287C1317.29 10.9922 1303.15 -3.14258 1285.71 -3.14258V-0.142578ZM1314.29 28.4287L1317.29 28.4287C1317.29 14.3061 1328.73 2.85742 1342.86 2.85742V-0.142578V-3.14258C1325.42 -3.14258 1311.29 10.9924 1311.29 28.4287L1314.29 28.4287ZM1342.86 -0.142578L1342.86 2.85742C1356.98 2.85755 1368.43 14.3062 1368.43 28.4287L1371.43 28.4287L1374.43 28.4287C1374.43 10.9924 1360.29 -3.14242 1342.86 -3.14258L1342.86 -0.142578ZM1371.43 28.4287L1374.43 28.4287C1374.43 14.3061 1385.88 2.85742 1400 2.85742V-0.142578V-3.14258C1382.56 -3.14258 1368.43 10.9924 1368.43 28.4287L1371.43 28.4287ZM1400 -0.142578L1400 2.85742C1414.12 2.85743 1425.57 14.3061 1425.57 28.4287L1428.57 28.4287L1431.57 28.4287C1431.57 10.9924 1417.44 -3.14257 1400 -3.14258L1400 -0.142578ZM1428.57 28.4287L1431.57 28.4287C1431.57 14.3062 1443.02 2.85756 1457.14 2.85742L1457.14 -0.142578L1457.14 -3.14258C1439.71 -3.14241 1425.57 10.9924 1425.57 28.4287L1428.57 28.4287ZM1457.14 -0.142578V2.85742C1471.27 2.85742 1482.71 14.3061 1482.71 28.4287L1485.71 28.4287L1488.71 28.4287C1488.71 10.9924 1474.58 -3.14258 1457.14 -3.14258V-0.142578ZM1485.71 28.4287L1488.71 28.4287C1488.71 14.3062 1500.16 2.85742 1514.29 2.85742V-0.142578V-3.14258C1496.85 -3.14258 1482.71 10.9922 1482.71 28.4287L1485.71 28.4287ZM1514.29 -0.142578L1514.29 2.85742C1528.41 2.85764 1539.86 14.3062 1539.86 28.4287L1542.86 28.4287L1545.86 28.4287C1545.86 10.9925 1531.72 -3.14231 1514.29 -3.14258L1514.29 -0.142578ZM1542.86 28.4287L1545.86 28.4287C1545.86 14.3061 1557.31 2.85742 1571.43 2.85742V-0.142578V-3.14258C1553.99 -3.14258 1539.86 10.9924 1539.86 28.4287L1542.86 28.4287ZM1571.43 -0.142578L1571.43 2.85742C1585.33 2.85749 1596.64 13.9512 1596.99 27.7674L1599.99 27.6914L1602.99 27.6154C1602.56 10.5542 1588.59 -3.1425 1571.43 -3.14258L1571.43 -0.142578ZM1599.99 27.6914L1596.99 27.7311L1597 28.4684L1600 28.4287L1603 28.389L1602.99 27.6517L1599.99 27.6914ZM1600 28.4287L1603 28.4287C1603 14.3061 1614.45 2.8575 1628.57 2.85742L1628.57 -0.142578L1628.57 -3.14258C1611.13 -3.14248 1597 10.9924 1597 28.4287L1600 28.4287ZM1628.57 -0.142578V2.85742C1642.69 2.85742 1654.14 14.3061 1654.14 28.4287L1657.14 28.4287L1660.14 28.4287C1660.14 10.9924 1646.01 -3.14258 1628.57 -3.14258V-0.142578ZM1657.14 28.4287L1660.14 28.4287C1660.14 14.3062 1671.59 2.85762 1685.71 2.85742L1685.71 -0.142578L1685.71 -3.14258C1668.28 -3.14233 1654.14 10.9925 1654.14 28.4287L1657.14 28.4287ZM1685.71 -0.142578V2.85742C1699.84 2.85742 1711.29 14.3062 1711.29 28.4287L1714.29 28.4287L1717.29 28.4287C1717.29 10.9922 1703.15 -3.14258 1685.71 -3.14258V-0.142578ZM1714.29 28.4287L1717.29 28.4287C1717.29 14.3061 1728.73 2.85742 1742.86 2.85742V-0.142578V-3.14258C1725.42 -3.14258 1711.29 10.9924 1711.29 28.4287L1714.29 28.4287ZM1742.86 -0.142578L1742.86 2.85742C1756.98 2.85755 1768.43 14.3062 1768.43 28.4287L1771.43 28.4287L1774.43 28.4287C1774.43 10.9924 1760.29 -3.14242 1742.86 -3.14258L1742.86 -0.142578ZM1771.43 28.4287L1774.43 28.4287C1774.43 14.3061 1785.88 2.85742 1800 2.85742V-0.142578V-3.14258C1782.56 -3.14258 1768.43 10.9924 1768.43 28.4287L1771.43 28.4287ZM1800 -0.142578L1800 2.85742C1814.12 2.85743 1825.57 14.3061 1825.57 28.4287L1828.57 28.4287L1831.57 28.4287C1831.57 10.9924 1817.44 -3.14257 1800 -3.14258L1800 -0.142578ZM1828.57 28.4287L1831.57 28.4287C1831.57 14.3062 1843.02 2.85756 1857.14 2.85742L1857.14 -0.142578L1857.14 -3.14258C1839.71 -3.14241 1825.57 10.9924 1825.57 28.4287L1828.57 28.4287ZM1857.14 -0.142578V2.85742C1871.27 2.85742 1882.71 14.3061 1882.71 28.4287L1885.71 28.4287L1888.71 28.4287C1888.71 10.9924 1874.58 -3.14258 1857.14 -3.14258V-0.142578ZM1885.71 28.4287L1888.71 28.4287C1888.71 14.3062 1900.16 2.85742 1914.29 2.85742V-0.142578V-3.14258C1896.85 -3.14258 1882.71 10.9922 1882.71 28.4287L1885.71 28.4287ZM1914.29 -0.142578L1914.29 2.85742C1928.41 2.85762 1939.86 14.3062 1939.86 28.4287L1942.86 28.4287L1945.86 28.4287C1945.86 10.9925 1931.72 -3.14233 1914.29 -3.14258L1914.29 -0.142578ZM1942.86 28.4287L1945.86 28.4287C1945.86 14.3061 1957.31 2.85742 1971.43 2.85742V-0.142578V-3.14258C1953.99 -3.14258 1939.86 10.9924 1939.86 28.4287L1942.86 28.4287ZM1971.43 -0.142578L1971.43 2.85742C1985.55 2.85749 1997 14.3061 1997 28.4287L2000 28.4287L2003 28.4287C2003 10.9924 1988.87 -3.14249 1971.43 -3.14258L1971.43 -0.142578ZM2000 28.4287L2003 28.4287C2003 14.3061 2014.45 2.85749 2028.57 2.85742L2028.57 -0.142578L2028.57 -3.14258C2011.13 -3.1425 1997 10.9924 1997 28.4287L2000 28.4287ZM2028.57 -0.142578V2.85742C2042.69 2.85742 2054.14 14.3061 2054.14 28.4287L2057.14 28.4287L2060.14 28.4287C2060.14 10.9924 2046.01 -3.14258 2028.57 -3.14258V-0.142578ZM2057.14 28.4287L2060.14 28.4287C2060.14 14.3062 2071.59 2.85762 2085.71 2.85742L2085.71 -0.142578L2085.71 -3.14258C2068.28 -3.14233 2054.14 10.9925 2054.14 28.4287L2057.14 28.4287ZM2085.71 -0.142578V2.85742C2099.84 2.85742 2111.29 14.3062 2111.29 28.4287L2114.29 28.4287L2117.29 28.4287C2117.29 10.9922 2103.15 -3.14258 2085.71 -3.14258V-0.142578ZM2114.29 28.4287L2117.29 28.4287C2117.29 14.3061 2128.73 2.85742 2142.86 2.85742V-0.142578V-3.14258C2125.42 -3.14258 2111.29 10.9924 2111.29 28.4287L2114.29 28.4287ZM2142.86 -0.142578L2142.86 2.85742C2156.98 2.85756 2168.43 14.3062 2168.43 28.4287L2171.43 28.4287L2174.43 28.4287C2174.43 10.9924 2160.29 -3.14241 2142.86 -3.14258L2142.86 -0.142578ZM2171.43 28.4287L2174.43 28.4287C2174.43 14.3061 2185.88 2.85742 2200 2.85742V-0.142578V-3.14258C2182.56 -3.14258 2168.43 10.9924 2168.43 28.4287L2171.43 28.4287ZM2200 -0.142578L2200 2.85742C2214.12 2.85742 2225.57 14.3061 2225.57 28.4287L2228.57 28.4287L2231.57 28.4287C2231.57 10.9924 2217.44 -3.14258 2200 -3.14258L2200 -0.142578ZM2228.57 28.4287L2231.57 28.4287C2231.57 14.3062 2243.02 2.85756 2257.14 2.85742L2257.14 -0.142578L2257.14 -3.14258C2239.71 -3.14241 2225.57 10.9924 2225.57 28.4287L2228.57 28.4287ZM2257.14 -0.142578V2.85742C2271.27 2.85742 2282.71 14.3061 2282.71 28.4287L2285.71 28.4287L2288.71 28.4287C2288.71 10.9924 2274.58 -3.14258 2257.14 -3.14258V-0.142578ZM2285.71 28.4287L2288.71 28.4287C2288.71 14.3062 2300.16 2.85742 2314.29 2.85742V-0.142578V-3.14258C2296.85 -3.14258 2282.71 10.9922 2282.71 28.4287L2285.71 28.4287ZM2314.29 -0.142578L2314.29 2.85742C2328.41 2.85762 2339.86 14.3062 2339.86 28.4287L2342.86 28.4287L2345.86 28.4287C2345.86 10.9925 2331.72 -3.14233 2314.29 -3.14258L2314.29 -0.142578ZM2342.86 28.4287L2345.86 28.4287C2345.86 14.3061 2357.31 2.85742 2371.43 2.85742V-0.142578V-3.14258C2353.99 -3.14258 2339.86 10.9924 2339.86 28.4287L2342.86 28.4287ZM2371.43 -0.142578L2371.43 2.85742C2385.55 2.85749 2397 14.3061 2397 28.4287L2400 28.4287L2403 28.4287C2403 10.9924 2388.87 -3.14249 2371.43 -3.14258L2371.43 -0.142578ZM2400 28.4287H2397V57H2400H2403V28.4287H2400ZM2400 57V54H0V57V60H2400V57Z" fill="#FFFEBC" mask="url(#path-1-inside-1_2161_70)"/>
</g>
</g>
<defs>
<filter id="filter0_d_2161_70" x="-4" y="-3.14258" width="2408" height="65.1426" filterUnits="userSpaceOnUse" color-interpolation-filters="sRGB">
<feFlood flood-opacity="0" result="BackgroundImageFix"/>
<feColorMatrix in="SourceAlpha" type="matrix" values="0 0 0 0 0 0 0 0 0 0 0 0 0 0 0 0 0 0 127 0" result="hardAlpha"/>
<feOffset dy="1"/>
<feGaussianBlur stdDeviation="2"/>
<feComposite in2="hardAlpha" operator="out"/>
<feColorMatrix type="matrix" values="0 0 0 0 0 0 0 0 0 0 0 0 0 0 0 0 0 0 0.25 0"/>
<feBlend mode="normal" in2="BackgroundImageFix" result="effect1_dropShadow_2161_70"/>
<feBlend mode="normal" in="SourceGraphic" in2="effect1_dropShadow_2161_70" result="shape"/>
</filter>
<clipPath id="clip0_2161_70">
<rect width="1440" height="57" fill="white" transform="matrix(1 0 0 -1 0 57)"/>
</clipPath>
</defs>
</svg>
